<svg width="21" height="16" viewBox="0 0 21 16" fill="none" xmlns="http://www.w3.org/2000/svg">
<path d="M5.53579 9.76857H14.6181C15.5466 9.76857 16.4548 9.00162 16.4548 8.0732V2.9669C16.4548 2.03848 15.5466 1.13025 14.6181 1.13025H12.7613C12.7613 0.383477 11.9944 0 11.0659 0H9.06782C8.1394 0 7.37244 0.383477 7.37244 1.13025H5.51561C4.58719 1.13025 3.67896 2.0183 3.67896 2.9669V8.0732C3.67896 9.00162 4.58719 9.76857 5.53579 9.76857ZM10.077 2.68434C11.6512 2.68434 12.9228 3.95587 12.9228 5.53014C12.9228 7.10442 11.6512 8.37595 10.077 8.37595C8.50269 8.37595 7.23116 7.10442 7.23116 5.53014C7.23116 3.95587 8.50269 2.68434 10.077 2.68434Z" fill="white"/>
<path d="M19.3813 8.74344C18.9373 8.40033 18.5134 8.23886 18.2309 8.11776C17.9483 7.99666 17.7868 7.9563 17.7868 7.9563C17.7868 7.9563 17.9281 8.03703 18.1905 8.1985C18.4327 8.35996 18.796 8.62234 19.1391 9.00582C19.3006 9.18746 19.4418 9.42966 19.5226 9.67185C19.5831 9.91405 19.5629 10.1764 19.4216 10.3984C19.1593 10.8627 18.5336 11.2058 17.8676 11.4681C16.5153 11.9727 14.9007 12.1745 13.508 12.2553C12.9631 12.2956 12.4383 12.2956 11.9741 12.2956V14.4552C12.5191 14.3947 13.1246 14.2938 13.7704 14.1727C15.264 13.8497 16.9391 13.3653 18.3923 12.4975C18.7556 12.2755 19.0987 12.0333 19.4015 11.7507C19.7042 11.4681 19.9666 11.125 20.1079 10.7012C20.2492 10.2975 20.2088 9.83332 20.0271 9.51039C19.8455 9.12691 19.6033 8.9049 19.3813 8.74344Z" fill="white"/>
<path d="M1.80193 12.4774C3.25511 13.3452 4.9303 13.8296 6.42384 14.1526C6.90823 14.2535 7.39262 14.3342 7.83665 14.3948V15.6865L10.4604 13.426L7.83665 11.1655V12.2755C7.47335 12.2755 7.08988 12.2554 6.68622 12.2352C5.29359 12.1544 3.67895 11.9728 2.32669 11.4682C1.66065 11.226 1.03498 10.8627 0.752413 10.4187C0.611132 10.1967 0.570766 9.9545 0.651498 9.69212C0.712047 9.44992 0.853328 9.20773 1.01479 9.02608C1.33772 8.6426 1.70101 8.40041 1.96339 8.21876C2.20559 8.05729 2.36705 7.97656 2.36705 7.97656C2.36705 7.97656 2.20559 8.01693 1.92303 8.13803C1.64047 8.25913 1.23681 8.42059 0.772596 8.7637C0.550583 8.94535 0.308387 9.16736 0.146923 9.49029C-0.0145407 9.81322 -0.0549067 10.2774 0.0863743 10.6811C0.227655 11.0847 0.510217 11.4279 0.812962 11.7306C1.09552 12.0132 1.43864 12.2554 1.80193 12.4774Z" fill="white"/>
</svg>
