<svg width="47" height="30" viewBox="0 0 47 30" fill="none" xmlns="http://www.w3.org/2000/svg">
<path d="M45.9636 15.9482H46.0865L41.4592 7.12659C40.6568 5.72751 39.3948 4.65395 37.8907 4.09087C37.3758 2.86964 36.513 1.82935 35.4113 1.10134C34.3095 0.373334 33.0182 -0.00976129 31.7004 0.000420196C30.3826 0.0106017 29.0973 0.413604 28.0068 1.15855C26.9163 1.9035 26.0695 2.95699 25.5733 4.18604C24.9361 3.86343 24.2328 3.6954 23.5196 3.6954C22.8064 3.6954 22.1031 3.86343 21.4659 4.18604C20.9672 2.94894 20.1131 1.88977 19.013 1.14405C17.913 0.398341 16.6169 0 15.2907 0C13.9644 0 12.6684 0.398341 11.5683 1.14405C10.4682 1.88977 9.61416 2.94894 9.11542 4.18604C7.6955 4.77161 6.51091 5.81842 5.75011 7.1599L2.14376 13.7833C1.26334 15.0953 0.692397 16.5926 0.474521 18.1607C0.256645 19.7288 0.397599 21.3263 0.88662 22.8312C1.37564 24.3361 2.1998 25.7086 3.29616 26.8439C4.39251 27.9792 5.73208 28.8473 7.21257 29.3819C8.69307 29.9165 10.2753 30.1034 11.8385 29.9284C13.4018 29.7534 14.9046 29.2212 16.2323 28.3723C17.5599 27.5234 18.6774 26.3803 19.4992 25.0302C20.3211 23.6802 20.8256 22.159 20.9743 20.5827C21.0065 20.2554 21.0223 19.9267 21.0216 19.5978C21.0225 18.8996 20.9544 18.2031 20.8184 17.5184C20.727 17.091 20.6086 16.6698 20.4639 16.2575C20.7408 15.6847 21.1722 15.2018 21.7088 14.8639C22.2453 14.5261 22.8654 14.3469 23.4983 14.3469C24.1312 14.3469 24.7513 14.5261 25.2879 14.8639C25.8244 15.2018 26.2558 15.6847 26.5328 16.2575C26.388 16.6714 26.2696 17.0942 26.1783 17.5232C26.0422 18.2078 25.9741 18.9043 25.975 19.6025C25.9752 19.9203 25.991 20.2379 26.0223 20.5542C26.1563 22.0303 26.6025 23.4604 27.3309 24.7487C28.0592 26.0369 29.0529 27.1533 30.2452 28.0231C31.4375 28.8928 32.8009 29.4957 34.2437 29.7913C35.6866 30.0869 37.1755 30.0683 38.6107 29.7368C40.0458 29.4053 41.3939 28.7686 42.5644 27.8694C43.735 26.9702 44.7009 25.8293 45.3973 24.5233C46.0937 23.2174 46.5046 21.7765 46.6023 20.2975C46.6999 18.8185 46.4822 17.3355 45.9636 15.9482ZM10.6941 26.5685C9.41104 26.5639 8.15449 26.2005 7.06463 25.5189C5.97476 24.8373 5.09445 23.8643 4.52191 22.7084C3.94936 21.5525 3.70711 20.2592 3.82216 18.9727C3.93722 17.6863 4.40506 16.4573 5.1735 15.423C5.94194 14.3886 6.98074 13.5895 8.17402 13.1148C9.36729 12.6402 10.6681 12.5086 11.9313 12.7348C13.1946 12.961 14.3705 13.5361 15.328 14.3959C16.2855 15.2557 16.9868 16.3664 17.3538 17.6041C17.5495 18.2503 17.6482 18.9222 17.6468 19.5978C17.6418 21.4499 16.9068 23.2243 15.6032 24.5313C14.2996 25.8383 12.5339 26.571 10.6941 26.5685ZM36.3025 26.5685C34.4635 26.5698 32.6991 25.8365 31.3965 24.5297C30.0939 23.2228 29.3595 21.4491 29.3545 19.5978C29.3511 18.9193 29.4483 18.2441 29.6428 17.5946C30.0784 16.1572 30.9603 14.8982 32.1589 14.0025C33.3575 13.1067 34.8097 12.6213 36.3025 12.6175C37.2464 12.6161 38.1806 12.8096 39.0472 13.186C39.9138 13.5625 40.6945 14.114 41.341 14.8063H41.3694L41.7286 15.2488C42.5447 16.2749 43.0558 17.5125 43.2027 18.8187C43.3496 20.1248 43.1265 21.4461 42.559 22.63C41.9915 23.8138 41.1029 24.8119 39.9958 25.5088C38.8887 26.2058 37.6083 26.5731 36.3025 26.5685Z" fill="#CBDFA6"/>
</svg>
