<svg width="35" height="23" viewBox="0 0 35 23" fill="none" xmlns="http://www.w3.org/2000/svg">
<path d="M34.0467 12.1475H34.1377L30.7101 5.61294C30.1157 4.57658 29.1809 3.78136 28.0667 3.36426C27.6853 2.45964 27.0462 1.68906 26.2301 1.14979C25.414 0.610528 24.4575 0.326754 23.4814 0.334296C22.5052 0.341837 21.5531 0.640358 20.7453 1.19217C19.9376 1.74398 19.3103 2.52435 18.9427 3.43475C18.4708 3.19578 17.9498 3.07132 17.4215 3.07132C16.8932 3.07132 16.3722 3.19578 15.9002 3.43475C15.5308 2.51838 14.8982 1.73381 14.0833 1.18143C13.2684 0.629052 12.3084 0.333984 11.326 0.333984C10.3436 0.333984 9.38353 0.629052 8.56866 1.18143C7.75379 1.73381 7.12117 2.51838 6.75173 3.43475C5.69994 3.86851 4.82246 4.64392 4.25891 5.63761L1.58753 10.5438C0.935374 11.5157 0.512453 12.6248 0.351063 13.7864C0.189674 14.9479 0.294084 16.1312 0.656322 17.246C1.01856 18.3607 1.62905 19.3774 2.44116 20.2184C3.25328 21.0593 4.24555 21.7023 5.34221 22.0983C6.43887 22.4943 7.61092 22.6328 8.76886 22.5032C9.92679 22.3736 11.04 21.9793 12.0235 21.3505C13.0069 20.7217 13.8347 19.8749 14.4434 18.8749C15.0522 17.8749 15.426 16.748 15.5361 15.5804C15.56 15.338 15.5716 15.0945 15.5711 14.8508C15.5718 14.3337 15.5214 13.8177 15.4206 13.3106C15.3529 12.994 15.2652 12.682 15.158 12.3766C15.3631 11.9523 15.6827 11.5945 16.0801 11.3443C16.4776 11.094 16.9369 10.9613 17.4057 10.9613C17.8745 10.9613 18.3339 11.094 18.7313 11.3443C19.1288 11.5945 19.4483 11.9523 19.6535 12.3766C19.5462 12.6832 19.4585 12.9963 19.3909 13.3141C19.2901 13.8213 19.2397 14.3372 19.2403 14.8544C19.2405 15.0898 19.2522 15.325 19.2753 15.5593C19.3746 16.6527 19.7051 17.7121 20.2447 18.6663C20.7842 19.6206 21.5202 20.4476 22.4034 21.0918C23.2866 21.7361 24.2965 22.1827 25.3653 22.4016C26.4341 22.6206 27.537 22.6068 28.6001 22.3613C29.6631 22.1157 30.6617 21.6441 31.5288 20.978C32.3958 20.3119 33.1113 19.4668 33.6272 18.4994C34.1431 17.532 34.4474 16.4647 34.5198 15.3692C34.5921 14.2736 34.4308 13.1751 34.0467 12.1475ZM7.92111 20.0143C6.97071 20.011 6.03993 19.7418 5.23262 19.2369C4.42532 18.732 3.77323 18.0112 3.34913 17.155C2.92502 16.2988 2.74557 15.3408 2.8308 14.3879C2.91602 13.4349 3.26257 12.5246 3.83179 11.7584C4.401 10.9922 5.17049 10.4003 6.05439 10.0487C6.9383 9.69708 7.90187 9.59962 8.83759 9.76718C9.77332 9.93474 10.6444 10.3607 11.3536 10.9976C12.0629 11.6345 12.5824 12.4572 12.8542 13.374C12.9992 13.8527 13.0723 14.3505 13.0713 14.8508C13.0676 16.2228 12.5231 17.5372 11.5575 18.5053C10.5918 19.4735 9.28396 20.0162 7.92111 20.0143ZM26.8903 20.0143C25.5281 20.0153 24.2211 19.4721 23.2562 18.5041C22.2913 17.5361 21.7474 16.2222 21.7436 14.8508C21.7411 14.3483 21.8131 13.8482 21.9572 13.367C22.2799 12.3023 22.9331 11.3697 23.8209 10.7062C24.7088 10.0427 25.7846 9.6831 26.8903 9.6803C27.5895 9.67922 28.2815 9.82255 28.9234 10.1014C29.5654 10.3803 30.1437 10.7888 30.6226 11.3016H30.6436L30.9097 11.6294C31.5142 12.3895 31.8927 13.3062 32.0016 14.2737C32.1104 15.2412 31.9451 16.22 31.5248 17.0969C31.1044 17.9739 30.4461 18.7132 29.6261 19.2294C28.806 19.7457 27.8575 20.0178 26.8903 20.0143Z" fill="#477652"/>
</svg>
