<svg width="29" height="23" viewBox="0 0 29 23" fill="none" xmlns="http://www.w3.org/2000/svg">
<path d="M22.9561 1.72287C22.3789 1.72287 21.8368 1.83832 21.3158 2.00065C20.882 1.02062 19.8961 0.333984 18.7456 0.333984C17.1952 0.333984 15.9386 1.57747 15.9386 3.11176C15.9386 4.13737 16.5066 5.02322 17.3421 5.50412V7.27843C17.3421 8.04536 17.9706 8.66732 18.7456 8.66732H19.0965C19.2904 8.66732 19.4474 8.8227 19.4474 9.01454V9.70898C19.4474 9.90082 19.2904 10.0562 19.0965 10.0562H18.7456C17.1978 10.0562 15.9386 8.81011 15.9386 7.27843V6.20204C15.0579 5.41949 14.5351 4.29579 14.5351 3.11176C14.5351 2.62218 14.6364 2.15951 14.7939 1.72287H8.92105C4.27018 1.72287 0.5 5.45378 0.5 10.0562V14.9173C0.5 15.301 0.814035 15.6118 1.20175 15.6118H1.90351V21.8618C1.90351 22.2454 2.21754 22.5562 2.60526 22.5562H5.41228C5.8 22.5562 6.11404 22.2454 6.11404 21.8618V17.1808C7.53289 17.9425 9.21579 18.3895 11.0263 18.3895C12.8368 18.3895 14.5197 17.9425 15.9386 17.1808V21.8618C15.9386 22.2454 16.2526 22.5562 16.6404 22.5562H19.4474C19.8351 22.5562 20.1491 22.2454 20.1491 21.8618V12.834H22.9561C23.9842 12.834 24.9346 12.5406 25.7632 12.0636V16.3062C25.7632 16.6895 25.4487 17.0007 25.0614 17.0007C24.6741 17.0007 24.3596 16.6895 24.3596 16.3062C24.3596 15.9225 24.0456 15.6118 23.6579 15.6118H22.2544C21.8667 15.6118 21.5526 15.9225 21.5526 16.3062C21.5526 18.3405 23.3298 19.972 25.4281 19.7598C27.2535 19.5753 28.5702 17.9169 28.5702 16.1009V7.27843C28.5702 4.21029 26.0566 1.72287 22.9561 1.72287ZM23.6579 7.27843C23.2702 7.27843 22.9561 6.96766 22.9561 6.58398C22.9561 6.2003 23.2702 5.88954 23.6579 5.88954C24.0456 5.88954 24.3596 6.2003 24.3596 6.58398C24.3596 6.96766 24.0456 7.27843 23.6579 7.27843Z" fill="#477652"/>
</svg>
