<svg width="39" height="31" viewBox="0 0 39 31" fill="none" xmlns="http://www.w3.org/2000/svg">
<path d="M30.8666 2.375C30.0874 2.375 29.3555 2.53086 28.6521 2.75C28.0665 1.42695 26.7355 0.5 25.1824 0.5C23.0893 0.5 21.3929 2.17871 21.3929 4.25C21.3929 5.63457 22.1597 6.83047 23.2876 7.47969V9.875C23.2876 10.9104 24.1361 11.75 25.1824 11.75H25.656C25.9178 11.75 26.1297 11.9598 26.1297 12.2188V13.1562C26.1297 13.4152 25.9178 13.625 25.656 13.625H25.1824C23.0928 13.625 21.3929 11.9428 21.3929 9.875V8.42188C20.2039 7.36543 19.4981 5.84844 19.4981 4.25C19.4981 3.58906 19.6349 2.96445 19.8475 2.375H11.9192C5.64052 2.375 0.550781 7.41172 0.550781 13.625V20.1875C0.550781 20.7055 0.974729 21.125 1.49815 21.125H2.44552V29.5625C2.44552 30.0805 2.86947 30.5 3.39289 30.5H7.18236C7.70578 30.5 8.12973 30.0805 8.12973 29.5625V23.2432C10.0452 24.2715 12.3171 24.875 14.7613 24.875C17.2055 24.875 19.4774 24.2715 21.3929 23.2432V29.5625C21.3929 30.0805 21.8168 30.5 22.3403 30.5H26.1297C26.6532 30.5 27.0771 30.0805 27.0771 29.5625V17.375H30.8666C32.2545 17.375 33.5376 16.9789 34.656 16.335V22.0625C34.656 22.5799 34.2315 23 33.7087 23C33.1858 23 32.7613 22.5799 32.7613 22.0625C32.7613 21.5445 32.3374 21.125 31.8139 21.125H29.9192C29.3958 21.125 28.9718 21.5445 28.9718 22.0625C28.9718 24.8088 31.371 27.0113 34.2037 26.7248C36.668 26.4758 38.4455 24.2369 38.4455 21.7854V9.875C38.4455 5.73301 35.0522 2.375 30.8666 2.375ZM31.8139 9.875C31.2905 9.875 30.8666 9.45547 30.8666 8.9375C30.8666 8.41953 31.2905 8 31.8139 8C32.3374 8 32.7613 8.41953 32.7613 8.9375C32.7613 9.45547 32.3374 9.875 31.8139 9.875Z" fill="#CBDFA6"/>
</svg>
