<svg width="27" height="20" viewBox="0 0 27 20" fill="none" xmlns="http://www.w3.org/2000/svg">
<path d="M18.9272 7.14286C18.9272 3.19643 14.6913 0 9.4636 0C4.23587 0 0 3.19643 0 7.14286C0 8.67411 0.641523 10.0848 1.72893 11.25C1.11925 12.5982 0.113745 13.6696 0.100096 13.683C0 13.7857 -0.0272989 13.9375 0.0318487 14.0714C0.0909962 14.2054 0.218391 14.2857 0.363985 14.2857C2.02921 14.2857 3.40781 13.7366 4.39966 13.1696C5.8647 13.8705 7.59818 14.2857 9.4636 14.2857C14.6913 14.2857 18.9272 11.0893 18.9272 7.14286ZM24.478 16.9643C25.5654 15.8036 26.2069 14.3884 26.2069 12.8571C26.2069 9.87054 23.7728 7.3125 20.324 6.24554C20.3649 6.54018 20.3831 6.83929 20.3831 7.14286C20.3831 11.8705 15.483 15.7143 9.4636 15.7143C8.97222 15.7143 8.49449 15.6786 8.02131 15.6295C9.4545 18.1964 12.8214 20 16.7433 20C18.6087 20 20.3422 19.5893 21.8072 18.8839C22.7991 19.4509 24.1777 20 25.8429 20C25.9885 20 26.1205 19.9152 26.175 19.7857C26.2342 19.6563 26.2069 19.5045 26.1068 19.3973C26.0932 19.3839 25.0876 18.317 24.478 16.9643Z" fill="#477652"/>
</svg>
