<svg width="41" height="31" viewBox="0 0 41 31" fill="none" xmlns="http://www.w3.org/2000/svg">
<path d="M29.2346 11.2143C29.2346 5.29464 22.8807 0.5 15.0392 0.5C7.19756 0.5 0.84375 5.29464 0.84375 11.2143C0.84375 13.5112 1.80603 15.6272 3.43714 17.375C2.52263 19.3973 1.01437 21.0045 0.993894 21.0246C0.84375 21.1786 0.802802 21.4062 0.891523 21.6071C0.980244 21.808 1.17134 21.9286 1.38973 21.9286C3.88757 21.9286 5.95546 21.1049 7.44325 20.2545C9.64081 21.3058 12.241 21.9286 15.0392 21.9286C22.8807 21.9286 29.2346 17.1339 29.2346 11.2143ZM37.5607 25.9464C39.1918 24.2054 40.1541 22.0826 40.1541 19.7857C40.1541 15.3058 36.5029 11.4687 31.3297 9.8683C31.3912 10.3103 31.4185 10.7589 31.4185 11.2143C31.4185 18.3058 24.0682 24.0714 15.0392 24.0714C14.3021 24.0714 13.5855 24.0179 12.8757 23.9442C15.0255 27.7946 20.0758 30.5 25.9587 30.5C28.7568 30.5 31.357 29.8839 33.5546 28.8259C35.0424 29.6763 37.1103 30.5 39.6081 30.5C39.8265 30.5 40.0244 30.3728 40.1063 30.1786C40.195 29.9844 40.1541 29.7567 40.004 29.596C39.9835 29.5759 38.4752 27.9754 37.5607 25.9464Z" fill="#CBDFA6"/>
</svg>
