<svg width="100" height="100" viewBox="0 0 100 100" fill="none" xmlns="http://www.w3.org/2000/svg">
<path d="M23.4375 50C23.4375 45.0455 24.8025 40.4043 27.174 36.4303V19.5732H10.317C3.62656 28.2623 0 38.852 0 50C0 61.148 3.62656 71.7377 10.317 80.4268H27.174V63.5697C24.8025 59.5957 23.4375 54.9545 23.4375 50Z" fill="#FBBD00"/>
<path d="M50 76.5625L38.2812 88.2812L50 100C61.1482 100 71.7377 96.3734 80.4268 89.683V72.8439H63.5877C59.5789 75.224 54.9182 76.5625 50 76.5625Z" fill="#0F9D58"/>
<path d="M27.1739 63.5697L10.3169 80.4268C11.6415 82.1471 13.0839 83.7945 14.6446 85.3555C24.0884 94.799 36.6444 100 49.9999 100V76.5625C40.3077 76.5625 31.813 71.3437 27.1739 63.5697Z" fill="#31AA52"/>
<path d="M100 50C100 46.958 99.7246 43.9104 99.1813 40.942L98.7416 38.5398H50V61.9773H73.7211C71.4176 66.5596 67.8758 70.298 63.5875 72.8441L80.4266 89.6832C82.1469 88.3586 83.7943 86.9162 85.3553 85.3555C94.799 75.9115 100 63.3555 100 50Z" fill="#3C79E6"/>
<path d="M68.7826 31.2174L70.8541 33.2889L87.427 16.7162L85.3555 14.6447C75.9117 5.20098 63.3557 0 50 0L38.2812 11.7188L50 23.4375C57.0949 23.4375 63.7654 26.2004 68.7826 31.2174Z" fill="#CF2D48"/>
<path d="M50.0001 23.4375V0C36.6446 0 24.0886 5.20098 14.6446 14.6445C13.0839 16.2053 11.6415 17.8527 10.3169 19.5732L27.1739 36.4303C31.8132 28.6562 40.3079 23.4375 50.0001 23.4375Z" fill="#EB4132"/>
</svg>
