<svg width="20" height="18" viewBox="0 0 20 18" fill="none" xmlns="http://www.w3.org/2000/svg">
<path d="M5.47428 9.58429C6.27428 9.86429 6.89428 10.3243 7.33428 10.9643C7.77428 11.6043 7.99428 12.3843 7.99428 13.3043C7.99428 14.5043 7.61428 15.4843 6.85428 16.2443C6.09428 17.0043 5.15428 17.3843 4.03428 17.3843C2.87428 17.3843 1.91428 17.0043 1.15428 16.2443C0.394282 15.4443 0.0142822 14.4643 0.0142822 13.3043C0.0142822 12.7443 0.0742821 12.1843 0.194282 11.6243C0.354282 11.0243 0.654282 10.1643 1.09428 9.04429L3.91428 0.644287H7.69428L5.47428 9.58429ZM16.8143 9.58429C17.6143 9.86429 18.2343 10.3243 18.6743 10.9643C19.1143 11.6043 19.3343 12.3843 19.3343 13.3043C19.3343 14.5043 18.9543 15.4843 18.1943 16.2443C17.4343 17.0043 16.4943 17.3843 15.3743 17.3843C14.2143 17.3843 13.2543 17.0043 12.4943 16.2443C11.7343 15.4443 11.3543 14.4643 11.3543 13.3043C11.3543 12.7443 11.4143 12.1843 11.5343 11.6243C11.6943 11.0243 11.9943 10.1643 12.4343 9.04429L15.2543 0.644287H19.0343L16.8143 9.58429Z" fill="#477652"/>
</svg>
