<svg width="100" height="100" viewBox="0 0 100 100" fill="none" xmlns="http://www.w3.org/2000/svg">
<circle cx="50" cy="50" r="47" fill="white" />
<path d="M50.0003 0.208164C22.3862 0.208164 0 22.5943 0 50.2085C0 74.9751 18.0261 95.486 41.6613 99.4578V60.6399H29.5997V46.6709H41.6613V36.3707C41.6613 24.4195 48.9607 17.9068 59.6235 17.9068C64.7304 17.9068 69.1191 18.2873 70.3931 18.4549V30.9471L62.9977 30.9507C57.2001 30.9507 56.0824 33.7051 56.0824 37.7485V46.6637H69.916L68.1117 60.6327H56.0824V99.7918C80.821 96.7809 100 75.7475 100 50.1941C100 22.5943 77.6138 0.208164 50.0003 0.208164Z" fill="#3A589B"/>
</svg>
