<svg width="37" height="25" viewBox="0 0 37 25" fill="none" xmlns="http://www.w3.org/2000/svg">
<path d="M36.4709 13.2586H36.5692L32.8674 6.20127C32.2254 5.08201 31.2159 4.22316 30.0125 3.7727C29.6006 2.79571 28.9104 1.96348 28.029 1.38108C27.1476 0.798667 26.1146 0.492191 25.0603 0.500336C24.0061 0.508481 22.9778 0.830883 22.1054 1.42684C21.233 2.0228 20.5556 2.86559 20.1586 3.84883C19.6489 3.59074 19.0862 3.45632 18.5157 3.45632C17.9451 3.45632 17.3824 3.59074 16.8727 3.84883C16.4737 2.85915 15.7905 2.01181 14.9104 1.41524C14.0304 0.818673 12.9935 0.5 11.9325 0.5C10.8715 0.5 9.83469 0.818673 8.95463 1.41524C8.07457 2.01181 7.39133 2.85915 6.99234 3.84883C5.8564 4.31729 4.90873 5.15473 4.30009 6.22792L1.41501 11.5266C0.710673 12.5763 0.253918 13.7741 0.0796171 15.0286C-0.0946836 16.283 0.0180796 17.561 0.409296 18.765C0.800513 19.9689 1.45984 21.0669 2.33692 21.9751C3.21401 22.8834 4.28567 23.5778 5.47006 24.0055C6.65445 24.4332 7.92026 24.5827 9.17083 24.4427C10.4214 24.3028 11.6237 23.8769 12.6858 23.1978C13.748 22.5187 14.6419 21.6042 15.2994 20.5242C15.9569 19.4442 16.3605 18.2272 16.4795 16.9662C16.5052 16.7043 16.5178 16.4413 16.5173 16.1782C16.518 15.6197 16.4635 15.0624 16.3547 14.5148C16.2816 14.1728 16.1869 13.8358 16.0711 13.506C16.2927 13.0477 16.6378 12.6614 17.067 12.3911C17.4963 12.1209 17.9924 11.9775 18.4986 11.9775C19.0049 11.9775 19.501 12.1209 19.9303 12.3911C20.3595 12.6614 20.7046 13.0477 20.9262 13.506C20.8104 13.8371 20.7157 14.1753 20.6426 14.5186C20.5338 15.0662 20.4793 15.6235 20.48 16.182C20.4802 16.4363 20.4928 16.6903 20.5178 16.9433C20.6251 18.1242 20.982 19.2684 21.5647 20.2989C22.1474 21.3295 22.9423 22.2227 23.8962 22.9185C24.85 23.6142 25.9407 24.0966 27.095 24.333C28.2493 24.5695 29.4404 24.5546 30.5885 24.2895C31.7366 24.0243 32.8151 23.5149 33.7515 22.7955C34.688 22.0762 35.4607 21.1635 36.0179 20.1187C36.575 19.0739 36.9037 17.9212 36.9818 16.738C37.06 15.5548 36.8857 14.3684 36.4709 13.2586ZM8.25527 21.7548C7.22883 21.7511 6.22359 21.4604 5.3517 20.9152C4.47981 20.3699 3.77556 19.5914 3.31753 18.6667C2.85949 17.742 2.66569 16.7073 2.75773 15.6782C2.84977 14.649 3.22405 13.6659 3.8388 12.8384C4.45355 12.0109 5.28459 11.3716 6.23921 10.9919C7.19384 10.6121 8.23449 10.5069 9.24507 10.6879C10.2557 10.8688 11.1964 11.3289 11.9624 12.0167C12.7284 12.7046 13.2895 13.5931 13.583 14.5833C13.7396 15.1002 13.8186 15.6378 13.8175 16.1782C13.8135 17.6599 13.2254 19.0795 12.1825 20.1251C11.1396 21.1707 9.72715 21.7568 8.25527 21.7548ZM28.742 21.7548C27.2708 21.7558 25.8593 21.1692 24.8172 20.1237C23.7751 19.0782 23.1876 17.6593 23.1836 16.1782C23.1809 15.6355 23.2586 15.0953 23.4143 14.5757C23.7627 13.4258 24.4682 12.4186 25.4271 11.702C26.386 10.9854 27.5478 10.597 28.742 10.594C29.4971 10.5929 30.2445 10.7477 30.9378 11.0488C31.6311 11.35 32.2556 11.7912 32.7728 12.345H32.7955L33.0829 12.699C33.7358 13.5199 34.1446 14.51 34.2622 15.5549C34.3797 16.5998 34.2012 17.6569 33.7472 18.604C33.2932 19.5511 32.5823 20.3495 31.6966 20.9071C30.8109 21.4646 29.7866 21.7585 28.742 21.7548Z" fill="white"/>
</svg>
