<svg width="34" height="32" viewBox="0 0 34 32" fill="none" xmlns="http://www.w3.org/2000/svg">
<path opacity="0.4" d="M17 12.1173C15.8442 12.1173 14.7144 12.4684 13.7534 13.1261C12.7924 13.7839 12.0434 14.7189 11.6011 15.8127C11.1588 16.9066 11.0431 18.1102 11.2685 19.2714C11.494 20.4326 12.0506 21.4993 12.8678 22.3365C13.6851 23.1737 14.7264 23.7438 15.8599 23.9748C16.9935 24.2058 18.1685 24.0872 19.2363 23.6341C20.3041 23.1811 21.2168 22.4138 21.8589 21.4293C22.501 20.4449 22.8438 19.2875 22.8438 18.1036C22.8415 16.5166 22.2251 14.9953 21.1296 13.8732C20.0342 12.7511 18.5492 12.1196 17 12.1173ZM17 15.9267C16.4369 15.9283 15.8973 16.1582 15.4991 16.5661C15.101 16.974 14.8766 17.5267 14.875 18.1036C14.875 18.3922 14.7631 18.6691 14.5638 18.8732C14.3645 19.0773 14.0943 19.192 13.8125 19.192C13.5307 19.192 13.2605 19.0773 13.0612 18.8732C12.8619 18.6691 12.75 18.3922 12.75 18.1036C12.7511 16.9492 13.1992 15.8425 13.996 15.0262C14.7928 14.21 15.8732 13.751 17 13.7499C17.2818 13.7499 17.552 13.8646 17.7513 14.0687C17.9506 14.2728 18.0625 14.5496 18.0625 14.8383C18.0625 15.127 17.9506 15.4038 17.7513 15.6079C17.552 15.8121 17.2818 15.9267 17 15.9267Z" fill="white"/>
<path d="M30.8125 5.04262H24.9688L24.1453 2.80457C23.9177 2.18289 23.5103 1.6472 22.9774 1.26913C22.4446 0.891072 21.8118 0.688661 21.1637 0.688965H12.8297C12.1815 0.688661 11.5487 0.891072 11.0159 1.26913C10.4831 1.6472 10.0756 2.18289 9.84805 2.80457L9.03125 5.04262H3.1875C2.34212 5.04262 1.53137 5.38664 0.933597 5.99899C0.335825 6.61134 0 7.44187 0 8.30787L0 27.8993C0 28.7653 0.335825 29.5959 0.933597 30.2082C1.53137 30.8206 2.34212 31.1646 3.1875 31.1646H30.8125C31.6579 31.1646 32.4686 30.8206 33.0664 30.2082C33.6642 29.5959 34 28.7653 34 27.8993V8.30787C34 7.44187 33.6642 6.61134 33.0664 5.99899C32.4686 5.38664 31.6579 5.04262 30.8125 5.04262ZM17 26.2667C15.4239 26.2667 13.8833 25.788 12.5728 24.891C11.2623 23.994 10.241 22.7191 9.63784 21.2275C9.0347 19.7359 8.87689 18.0945 9.18437 16.5111C9.49184 14.9276 10.2508 13.473 11.3652 12.3314C12.4797 11.1898 13.8996 10.4123 15.4454 10.0973C16.9912 9.78236 18.5934 9.94402 20.0495 10.5619C21.5056 11.1797 22.7502 12.226 23.6258 13.5684C24.5014 14.9108 24.9688 16.4891 24.9688 18.1036C24.967 20.268 24.1269 22.3433 22.6328 23.8738C21.1388 25.4043 19.1129 26.2649 17 26.2667Z" fill="white"/>
</svg>
