<svg width="34" height="31" viewBox="0 0 34 31" fill="none" xmlns="http://www.w3.org/2000/svg">
<path d="M16.7226 2.75536L16.9999 2.94026L17.2773 2.75536C18.5939 1.87764 19.9123 1.42586 21.1258 1.42586C23.5387 1.42586 25.3336 3.10313 26.062 5.88599C26.7633 9.72545 24.5032 15.0155 17.3425 17.9991L17.3266 18.0057L17.3112 18.0134C17.2282 18.0549 17.152 18.0752 17.0381 18.0752C16.9072 18.0752 16.7962 18.048 16.7269 18.0134L16.7091 18.0045L16.6907 17.9971C9.47993 15.0829 7.15626 9.78201 7.90218 5.91032L7.90222 5.91033L7.90334 5.90406C8.401 3.13141 10.3578 1.42586 12.8359 1.42586C14.052 1.42586 15.4087 1.87946 16.7226 2.75536ZM16.8128 17.4344L17.0013 17.5105L17.1894 17.4335C23.8612 14.7023 26.3388 9.77406 25.5511 5.98622C25.0932 3.54099 23.3922 1.95394 21.1258 1.95394C19.8385 1.95394 18.4764 2.50881 17.1643 3.46305L17.1643 3.46301L17.1584 3.46742L16.9999 3.58624L16.8434 3.46888C16.8431 3.46863 16.8428 3.46838 16.8425 3.46813C15.5234 2.46911 14.1215 1.91574 12.8359 1.91574C10.5624 1.91574 8.86575 3.54913 8.40997 5.98933C7.66385 9.80954 10.1336 14.7393 16.8128 17.4344Z" fill="white" stroke="white"/>
<path d="M14.1348 22.2045L10.0472 16.7798C9.35952 15.8629 8.06065 15.6337 7.1056 16.245C6.15054 16.8562 5.80673 18.1551 6.37976 19.1483L7.83144 21.7461L7.0674 21.8607L4.54605 18.5753L4.43145 12.6158C4.43145 11.3933 3.39999 10.5146 2.17752 10.5146C0.993255 10.5146 0 11.4315 0 12.6158V20.6C0 21.2494 0.267415 21.8607 0.687639 22.3191L7.44942 30.0741L14.8988 29.9977L14.7078 23.618C14.6696 23.0831 14.4786 22.5865 14.1348 22.2045ZM8.13705 28.5461L1.8337 21.3259L1.7955 21.2877C1.60449 21.0966 1.52809 20.8292 1.52809 20.6V12.654C1.52809 12.3101 1.8337 12.0809 2.21572 12.0809C2.59775 12.0809 2.90336 12.3101 2.90336 12.6922L3.01797 19.2247L6.41796 23.5798L10.2382 22.9685L7.71683 18.4607C7.56402 18.1551 7.64043 17.7731 7.94604 17.582C8.25166 17.391 8.63368 17.4674 8.82469 17.7349L12.9505 23.1596C13.1033 23.3124 13.1797 23.5416 13.1797 23.7326L13.3325 28.5079L8.13705 28.5461Z" fill="white"/>
<path d="M33.9995 12.6539C33.9995 11.4697 33.0445 10.5528 31.822 10.5528H31.7838C30.5613 10.5528 29.5681 11.4315 29.5681 12.6539C29.5299 14.564 29.4917 17.7348 29.4535 18.6517L26.9321 21.8988L26.1681 21.7842L27.6198 19.1865C28.1928 18.1932 27.849 16.8944 26.8939 16.2831C25.9389 15.6719 24.64 15.9011 23.9524 16.818L19.8647 22.1663C19.5209 22.5865 19.3299 23.0831 19.2917 23.6179L19.0625 29.9595L26.5501 30.0741L33.3119 22.3573C33.7703 21.8988 33.9995 21.2876 33.9995 20.6382V12.6539ZM32.1658 21.2876L25.8243 28.546L20.667 28.5078L20.8198 23.7325C20.8198 23.5033 20.8962 23.3123 21.049 23.1213L25.1366 17.6966C25.3277 17.4292 25.7479 17.3528 26.0153 17.5438C26.3209 17.7348 26.3973 18.1168 26.2445 18.4225L23.7232 22.9303L27.5434 23.5415L30.9434 19.1483V18.8809C30.9434 18.8809 31.0198 14.9079 31.058 12.6539C31.058 12.2719 31.3636 12.0427 31.7456 12.0427H31.7838C32.1276 12.0427 32.4332 12.2337 32.4332 12.6157V20.6C32.4715 20.9056 32.3568 21.0966 32.1658 21.2876Z" fill="white"/>
</svg>
