<svg width="34" height="33" viewBox="0 0 34 33" fill="none" xmlns="http://www.w3.org/2000/svg">
<path d="M17 0C7.61093 0 0 7.38708 0 16.5C0 25.6129 7.61093 33 17 33C26.3891 33 34 25.6129 34 16.5C34 7.38708 26.3891 0 17 0ZM22.6408 23.7919C22.3735 24.0501 22.0931 24.3209 21.8656 24.5424C21.6606 24.742 21.516 24.9882 21.4426 25.255C21.3391 25.6316 21.2555 26.0121 21.1156 26.3774L19.9236 29.4944C18.9804 29.694 18.0042 29.8065 17 29.8065V27.9848C17.1158 27.1452 16.4763 25.5723 15.4488 24.575C15.0375 24.1758 14.8065 23.6343 14.8065 23.0694V20.9397C14.8065 20.1653 14.3767 19.4534 13.6781 19.0788C12.6931 18.5499 11.292 17.8107 10.3323 17.3416C9.54536 16.9571 8.81738 16.4674 8.16274 15.8946L8.1079 15.8467C7.63976 15.4365 7.22412 14.9732 6.86992 14.4668C6.22694 13.5506 5.17952 12.0437 4.49883 11.0643C5.90202 8.0371 8.43077 5.60601 11.573 4.28534L13.2189 5.0844C13.9482 5.43835 14.8065 4.92405 14.8065 4.13232V3.3805C15.3542 3.29468 15.9115 3.24012 16.4783 3.2195L18.4183 5.10236C18.8467 5.51819 18.8467 6.19216 18.4183 6.60798L18.0968 6.91936L17.388 7.6073C17.1741 7.81488 17.1741 8.1522 17.388 8.35978L17.7095 8.67181C17.9233 8.8794 17.9233 9.21671 17.7095 9.42429L17.1611 9.95655C17.0581 10.0563 16.9186 10.1123 16.7731 10.1122H16.1569C16.0143 10.1122 15.8772 10.1661 15.7744 10.2633L15.0944 10.9053C15.011 10.9841 14.9556 11.0865 14.9361 11.1979C14.9167 11.3092 14.9341 11.4237 14.986 11.5247L16.0547 13.5999C16.2371 13.9538 15.9718 14.3703 15.5646 14.3703H15.178C15.0457 14.3703 14.9182 14.3237 14.8188 14.2399L14.1827 13.7037C14.0387 13.5824 13.8647 13.4997 13.6778 13.4635C13.4909 13.4274 13.2976 13.439 13.1167 13.4974L10.9801 14.1887C10.817 14.2415 10.6751 14.3427 10.5746 14.4782C10.4741 14.6136 10.42 14.7762 10.42 14.9431C10.42 15.2445 10.5955 15.5193 10.8731 15.6544L11.6327 16.023C12.2777 16.3363 12.9892 16.4993 13.7104 16.4993C14.4315 16.4993 15.2589 18.315 15.9039 18.6284H20.4795C21.0615 18.6284 21.6188 18.8526 22.0308 19.2518L22.9692 20.1626C23.3612 20.5433 23.5814 21.0595 23.5813 21.5977C23.5812 22.0055 23.498 22.4093 23.3366 22.7859C23.1752 23.1624 22.9388 23.5043 22.6408 23.7919ZM28.5847 17.7142C28.1878 17.6177 27.8416 17.3816 27.6147 17.0509L26.3822 15.2565C26.2019 14.9944 26.1056 14.6862 26.1056 14.371C26.1056 14.0557 26.2019 13.7476 26.3822 13.4854L27.7251 11.5307C27.8841 11.2998 28.1021 11.1122 28.3585 10.9885L29.2482 10.5567C30.175 12.3477 30.7097 14.3623 30.7097 16.5C30.7097 17.0768 30.659 17.6417 30.5849 18.1992L28.5847 17.7142Z" fill="white"/>
</svg>
