<svg width="40" height="25" viewBox="0 0 40 25" fill="none" xmlns="http://www.w3.org/2000/svg">
<path d="M38.8961 5.71807L21.4623 0.224518C20.5123 -0.0748393 19.4873 -0.0748393 18.5379 0.224518L1.10344 5.71807C-0.367814 6.18153 -0.367814 8.17703 1.10344 8.64049L4.14283 9.59818C3.47595 10.4437 3.06595 11.4751 3.02532 12.6046C2.42345 12.9584 1.9997 13.5969 1.9997 14.359C1.9997 15.0501 2.3547 15.6315 2.86595 16.0033L1.27032 23.3673C1.13157 24.0077 1.60657 24.6154 2.24595 24.6154H5.75284C6.39284 24.6154 6.86784 24.0077 6.72909 23.3673L5.13346 16.0033C5.64471 15.6315 5.99971 15.0501 5.99971 14.359C5.99971 13.6174 5.59533 12.9969 5.02096 12.6366C5.06846 11.6738 5.54846 10.8225 6.31409 10.2828L18.5373 14.1347C19.1035 14.3129 20.1898 14.5353 21.4616 14.1347L38.8961 8.64113C40.368 8.17703 40.368 6.18217 38.8961 5.71807ZM22.0491 16.0956C20.266 16.6571 18.7466 16.3468 17.9498 16.0956L8.88597 13.2398L7.99972 20.5128C7.99972 22.7789 13.3722 24.6154 19.9998 24.6154C26.6273 24.6154 31.9998 22.7789 31.9998 20.5128L31.1136 13.2392L22.0491 16.0956Z" fill="white"/>
</svg>
