<svg width="34" height="33" viewBox="0 0 34 33" fill="none" xmlns="http://www.w3.org/2000/svg">
<path d="M7.51704 8.81367C6.70008 8.81367 6.04651 9.48086 6.04651 10.2842C6.04651 11.0876 6.71369 11.7547 7.51704 11.7547C8.32039 11.7547 8.98757 11.0876 8.98757 10.2842C8.98757 9.48086 8.334 8.81367 7.51704 8.81367ZM7.51704 11.2101C6.99963 11.2101 6.59115 10.788 6.59115 10.2842C6.59115 9.78041 7.01325 9.35832 7.51704 9.35832C8.03445 9.35832 8.44293 9.78041 8.44293 10.2842C8.44293 10.788 8.03445 11.2101 7.51704 11.2101Z" fill="white"/>
<path d="M12.0362 8.81367C11.2192 8.81367 10.5657 9.48086 10.5657 10.2842C10.5657 11.0876 11.2329 11.7547 12.0362 11.7547C12.8396 11.7547 13.5067 11.0876 13.5067 10.2842C13.5067 9.48086 12.8532 8.81367 12.0362 8.81367ZM12.0362 11.2101C11.5188 11.2101 11.1103 10.788 11.1103 10.2842C11.1103 9.78041 11.5324 9.35832 12.0362 9.35832C12.5536 9.35832 12.9621 9.78041 12.9621 10.2842C12.9621 10.788 12.5536 11.2101 12.0362 11.2101Z" fill="white"/>
<path d="M16.5572 11.7547C17.3742 11.7547 18.0277 11.0876 18.0277 10.2842C18.0277 9.48086 17.3605 8.81367 16.5572 8.81367C15.7402 8.81367 15.0867 9.48086 15.0867 10.2842C15.0867 11.0876 15.7402 11.7547 16.5572 11.7547ZM16.5572 9.35832C17.0746 9.35832 17.4831 9.78041 17.4831 10.2842C17.4831 10.788 17.061 11.2101 16.5572 11.2101C16.0534 11.2101 15.6313 10.788 15.6313 10.2842C15.6313 9.78041 16.0398 9.35832 16.5572 9.35832Z" fill="white"/>
<path d="M20.8325 17.3781C20.9959 17.242 21.1593 17.0922 21.3091 16.9424C22.1261 16.1254 22.7796 15.1723 23.2426 14.1375C23.2834 14.0558 23.3243 13.9741 23.3651 13.8924C23.3923 13.838 23.406 13.7699 23.4332 13.7154C23.8553 12.6397 24.0868 11.4824 24.0868 10.2842C24.0868 5.09646 19.8658 0.875488 14.6781 0.875488H9.4223C8.75511 0.875488 8.10154 0.943568 7.46159 1.07973C5.6915 1.44736 4.07119 2.31879 2.76405 3.62593C2.61428 3.7757 2.47812 3.92548 2.34196 4.08887C2.16495 4.29311 2.00156 4.49735 1.83816 4.71521C1.7837 4.79691 1.71562 4.86499 1.66116 4.94668C1.42968 5.28708 1.22544 5.6411 1.03482 5.99512C1.00759 6.04958 0.966738 6.11766 0.939506 6.17213C0.85781 6.33552 0.78973 6.51253 0.72165 6.67592C0.708034 6.71677 0.680802 6.77123 0.65357 6.81208C0.217857 7.90136 0 9.07234 0 10.2706C0 13.1572 1.32076 15.8804 3.5674 17.6504C3.11807 18.6308 2.53258 19.5431 1.81093 20.3464C1.525 20.6732 1.4433 21.1361 1.63392 21.531C1.75647 21.8033 1.98794 22.0076 2.26026 22.1029C2.28749 22.1165 2.30111 22.1301 2.32834 22.1301C2.34196 22.1301 2.36919 22.1301 2.38281 22.1437C2.4645 22.171 2.55981 22.1846 2.65513 22.1846C3.58102 22.1846 4.49329 22.0757 5.37833 21.8714C6.72632 21.5719 8.00623 21.0408 9.17721 20.3056C9.20444 20.292 9.21805 20.2783 9.24529 20.2647L9.2589 20.2511C9.53122 20.0741 9.80354 19.8835 10.0622 19.6928H14.6645C16.952 19.6928 19.1169 18.8759 20.8325 17.3781ZM9.58569 18.3312L9.39506 18.481C9.05466 18.7533 8.70065 18.9848 8.33301 19.2163C7.979 19.4341 7.61136 19.6384 7.24373 19.8154C7.09395 19.8835 6.93056 19.9515 6.78078 20.006C6.67186 20.0469 6.57654 20.1013 6.48123 20.1286C5.74597 20.4009 4.96985 20.6051 4.18012 20.714C4.13927 20.714 4.09843 20.7277 4.04396 20.7413C4.03035 20.7413 4.00311 20.7413 3.9895 20.7413C3.73079 20.7685 3.47209 20.7957 3.19977 20.8094C3.75803 20.1149 4.23459 19.3661 4.62945 18.5763C4.64307 18.5491 4.65668 18.5355 4.6703 18.5083C4.6703 18.4946 4.68392 18.481 4.68392 18.4674C4.80646 18.2087 4.929 17.9364 5.03793 17.6777L5.16048 17.3781L5.24217 17.1739L4.929 16.956L4.79284 16.8607C4.34351 16.5475 3.94865 16.1799 3.58102 15.7987C2.17857 14.3145 1.3616 12.3538 1.3616 10.2706C1.3616 9.24935 1.55223 8.24176 1.91986 7.31587C2.13772 6.75761 2.42365 6.21297 2.77767 5.70918C2.91383 5.51856 3.06361 5.31431 3.21338 5.13731C3.37678 4.94668 3.54017 4.75606 3.71718 4.57905C4.20735 4.08887 4.752 3.68039 5.32387 3.33999C6.54931 2.61834 7.93815 2.22348 9.40868 2.22348H14.6372C19.0761 2.22348 22.6979 5.83172 22.6979 10.2842C22.6979 12.4355 21.8537 14.4643 20.3424 15.9757C20.2062 16.1118 20.0564 16.2344 19.9203 16.3569C18.4633 17.6232 16.6116 18.3312 14.6509 18.3312H9.58569Z" fill="white"/>
<path d="M31.5219 26.4466C33.115 24.8536 34 22.7295 34 20.4556C34 19.8429 33.9319 19.2438 33.8094 18.6583C33.4281 16.9018 32.475 15.2951 31.127 14.1105C29.5884 12.7489 27.6005 12 25.5445 12H25.49C25.4219 12.4766 25.313 12.9532 25.1768 13.4161H25.5445C27.2601 13.4161 28.9076 14.0424 30.2011 15.1726C31.3177 16.1529 32.121 17.5009 32.4342 18.9578C32.5431 19.4344 32.5976 19.9382 32.5976 20.4556C32.5976 22.3346 31.8623 24.1047 30.5279 25.4391C29.9833 25.9837 29.3706 26.4194 28.6898 26.7598L27.5596 27.3181L27.7639 28.5571C27.8047 28.8022 27.8592 29.0473 27.9136 29.2788L28.077 29.9323L27.5052 29.5783C26.8516 29.1699 26.2661 28.6797 25.7623 28.0942L25.2585 27.5087H20.3023C18.8454 27.5087 17.4429 27.073 16.2583 26.2288C14.5972 25.0714 13.5215 23.2605 13.3036 21.2589H11.8876C12.119 23.7371 13.399 25.9565 15.455 27.3998C16.8847 28.4074 18.5594 28.9248 20.3023 28.9248H24.6049L24.6866 29.0201C26.2116 30.8038 28.3902 31.9203 30.7049 32.1245C29.9152 30.9808 29.3842 29.6873 29.1527 28.3257L29.1255 28.1214L29.3025 28.0261C30.1331 27.6312 30.8819 27.0866 31.5219 26.4466Z" fill="white"/>
</svg>
