<svg width="34" height="29" viewBox="0 0 34 29" fill="none" xmlns="http://www.w3.org/2000/svg">
<path d="M17 0C7.61016 0 0 6.02656 0 13.4643C0 16.675 1.42109 19.6138 3.78516 21.9248C2.95508 25.1873 0.179297 28.0938 0.146094 28.1261C0 28.275 -0.0398437 28.4951 0.0464844 28.6893C0.132812 28.8835 0.31875 29 0.53125 29C4.93398 29 8.23438 26.9415 9.86797 25.6728C12.0395 26.469 14.45 26.9286 17 26.9286C26.3898 26.9286 34 20.902 34 13.4643C34 6.02656 26.3898 0 17 0ZM21.25 8.62232C22.2328 8.62232 23.0297 9.39911 23.0297 10.3571C23.0297 11.3152 22.2328 12.092 21.25 12.092C20.2672 12.092 19.4703 11.3152 19.4703 10.3571C19.4703 9.39911 20.2672 8.62232 21.25 8.62232ZM12.75 8.62232C13.7328 8.62232 14.5297 9.39911 14.5297 10.3571C14.5297 11.3152 13.7328 12.092 12.75 12.092C11.7672 12.092 10.9703 11.3152 10.9703 10.3571C10.9703 9.39911 11.7672 8.62232 12.75 8.62232ZM23.6539 17.7431C22.0004 19.6333 19.5766 20.7143 17 20.7143C14.4234 20.7143 11.9996 19.6333 10.3461 17.7431C9.96094 17.3094 10.0141 16.6556 10.4656 16.2866C10.9105 15.9176 11.5813 15.9629 11.9598 16.4031C13.2082 17.8272 15.0477 18.6429 16.9934 18.6429C18.9457 18.6429 20.7785 17.8272 22.027 16.3967C22.4121 15.9629 23.0828 15.9112 23.5277 16.2801C23.9793 16.6556 24.0324 17.3094 23.6539 17.7431Z" fill="white"/>
</svg>
