<svg width="100" height="100" viewBox="0 0 100 100" fill="none" xmlns="http://www.w3.org/2000/svg">
<path d="M72.3538 38.9883C71.6375 37.3641 69.6116 36.727 68.0525 37.6366L58.6091 43.1445L56 33L51.9997 35.9167H47.9994L44 33L41.3909 43.1445L31.9466 37.6357C30.3875 36.726 28.3616 37.3632 27.6453 38.9874L20 56.3333L24.6519 54.8258C27.2188 53.9936 30.0406 54.9352 31.5416 57.1236L35 62.1667L36.1081 61.0893C38.69 58.5792 42.9603 58.8745 45.1512 61.7137L50 68L54.8488 61.7137C57.0397 58.8736 61.3091 58.5792 63.8919 61.0893L65 62.1667L68.4575 57.1236C69.9584 54.9352 72.7803 53.9936 75.3472 54.8258L80 56.3333L72.3538 38.9883Z" fill="white"/>
</svg>
