<svg width="100" height="100" viewBox="0 0 100 100" fill="none" xmlns="http://www.w3.org/2000/svg">
<g clip-path="url(#clip0)">
<path d="M71.5128 50.7887C69.6341 52.0462 67.4038 52.7941 65 52.7941C59.6872 52.7941 55.2228 49.1983 53.6488 44.2648C44.6478 46.7045 38 55.1151 38 65.1471V68.2353C36.3463 68.2353 35 66.8494 35 65.1471V41.9853C35 37.7284 31.6353 34.2647 27.5 34.2647C23.3647 34.2647 20 37.7284 20 41.9853V46.6176C20 48.3229 21.3434 49.7059 23 49.7059C24.6566 49.7059 26 48.3229 26 46.6176V41.9853C26 41.1331 26.6722 40.4412 27.5 40.4412C28.3278 40.4412 29 41.1331 29 41.9853V65.1471C29 70.2562 33.0369 74.4118 38 74.4118H60.5C61.3288 74.4118 62 73.7208 62 72.8676V71.3235C62 69.6182 60.6566 68.2353 59 68.2353H53L67.595 58.2188L70.8462 68.2575L71 69.2332V72.8676C71 73.7208 71.6712 74.4118 72.5 74.4118H75.5C76.3288 74.4118 77 73.7208 77 72.8676V69.238C77 68.2401 76.8434 67.249 76.5369 66.3023L71.5128 50.7887ZM75.5 31.1765H73.4487C72.2094 27.5864 68.9131 25 65 25C61.0869 25 57.7906 27.5864 56.5513 31.1765H54.5C52.0147 31.1765 50 33.2504 50 35.8088C50 38.3672 52.0147 40.4412 54.5 40.4412H56C56 45.558 60.0294 49.7059 65 49.7059C69.9706 49.7059 74 45.558 74 40.4412H75.5C77.9853 40.4412 80 38.3672 80 35.8088C80 33.2504 77.9853 31.1765 75.5 31.1765ZM61.25 36.5809C60.4212 36.5809 59.75 35.8899 59.75 35.0368C59.75 34.1836 60.4212 33.4926 61.25 33.4926C62.0788 33.4926 62.75 34.1836 62.75 35.0368C62.75 35.8899 62.0788 36.5809 61.25 36.5809ZM68.75 36.5809C67.9212 36.5809 67.25 35.8899 67.25 35.0368C67.25 34.1836 67.9212 33.4926 68.75 33.4926C69.5788 33.4926 70.25 34.1836 70.25 35.0368C70.25 35.8899 69.5788 36.5809 68.75 36.5809Z" fill="white"/>
</g>
<defs>
<clipPath id="clip0">
<rect width="60" height="49.4118" fill="white" transform="translate(20 25)"/>
</clipPath>
</defs>
</svg>
