<svg width="100" height="100" viewBox="0 0 100 100" fill="none" xmlns="http://www.w3.org/2000/svg">
<g clip-path="url(#clip0)">
<path d="M68 28.1034C66.7663 28.1034 65.6075 28.3614 64.4938 28.7241C63.5666 26.5343 61.4591 25 59 25C55.6859 25 53 27.7786 53 31.2069C53 33.4986 54.2141 35.478 56 36.5526V40.5172C56 42.2309 57.3434 43.6207 59 43.6207H59.75C60.1644 43.6207 60.5 43.9679 60.5 44.3966V45.9483C60.5 46.3769 60.1644 46.7241 59.75 46.7241H59C55.6916 46.7241 53 43.9398 53 40.5172V38.1121C51.1175 36.3635 50 33.8526 50 31.2069C50 30.1129 50.2166 29.0791 50.5531 28.1034H38C28.0588 28.1034 20 36.4401 20 46.7241V57.5862C20 58.4435 20.6712 59.1379 21.5 59.1379H23V73.1035C23 73.9608 23.6712 74.6552 24.5 74.6552H30.5C31.3287 74.6552 32 73.9608 32 73.1035V62.6439C35.0328 64.3459 38.63 65.3448 42.5 65.3448C46.37 65.3448 49.9672 64.3459 53 62.6439V73.1035C53 73.9608 53.6712 74.6552 54.5 74.6552H60.5C61.3288 74.6552 62 73.9608 62 73.1035V52.931H68C70.1975 52.931 72.2291 52.2754 74 51.2096V60.6897C74 61.546 73.3278 62.2414 72.5 62.2414C71.6722 62.2414 71 61.546 71 60.6897C71 59.8323 70.3288 59.1379 69.5 59.1379H66.5C65.6712 59.1379 65 59.8323 65 60.6897C65 65.2352 68.7987 68.8808 73.2837 68.4066C77.1856 67.9944 80 64.2887 80 60.2309V40.5172C80 33.6615 74.6272 28.1034 68 28.1034ZM69.5 40.5172C68.6712 40.5172 68 39.8228 68 38.9655C68 38.1082 68.6712 37.4138 69.5 37.4138C70.3288 37.4138 71 38.1082 71 38.9655C71 39.8228 70.3288 40.5172 69.5 40.5172Z" fill="white"/>
</g>
<defs>
<clipPath id="clip0">
<rect width="60" height="49.6552" fill="white" transform="translate(20 25)"/>
</clipPath>
</defs>
</svg>
