<svg width="100" height="100" viewBox="0 0 100 100" fill="none" xmlns="http://www.w3.org/2000/svg">
<path d="M74.48 35.5404C71.8859 35.5271 69.5581 37.1011 67.2987 37.9037C65.9356 34.8364 62.7341 32.6817 59 32.6817C57.9425 32.6817 56.9422 32.8859 56 33.2037V31.9715C56 30.7943 54.9922 29.8408 53.75 29.8408H52.25C51.0078 29.8408 50 30.7943 50 31.9715V36.3199C46.8134 34.0649 42.6163 32.6817 38 32.6817C28.0588 32.6817 20 39.0418 20 46.8863V68.1931C20 68.9779 20.6712 69.6135 21.5 69.6135H27.5C28.3287 69.6135 29 68.9779 29 68.1931V61.9085C32.0328 63.1833 35.63 63.9317 39.5 63.9317C43.37 63.9317 46.9672 63.1833 50 61.9085V68.1931C50 68.9779 50.6712 69.6135 51.5 69.6135H57.5C58.3288 69.6135 59 68.9779 59 68.1931V52.5681H71V55.409C71 56.1938 71.6712 56.8295 72.5 56.8295H75.5C76.3288 56.8295 77 56.1938 77 55.409V52.5681C78.6566 52.5681 80 51.2959 80 49.7272V41.5578C80 38.5313 77.6759 35.5573 74.48 35.5404ZM62 42.6249C61.1712 42.6249 60.5 41.9893 60.5 41.2045C60.5 40.4197 61.1712 39.784 62 39.784C62.8288 39.784 63.5 40.4197 63.5 41.2045C63.5 41.9893 62.8288 42.6249 62 42.6249Z" fill="white"/>
</svg>
