<svg width="100" height="100" viewBox="0 0 100 100" fill="none" xmlns="http://www.w3.org/2000/svg">
<path d="M22.6344 77.5715C22.6344 77.5715 24.7134 78.8095 25.1292 76.7612C25.5363 74.7565 19.738 70.2593 29.08 57.9859L29.6045 89H31.874L32.4497 64.9608L51.6896 65.3516L51.9479 89H54.2198L54.8829 65.4577C54.9057 64.9107 55.3302 64.3463 55.8491 64.2468C59.57 63.532 59.4834 60.0614 59.4834 56.1062V46.7614L66.2267 25.64C66.2086 25.3159 66.3172 24.9959 66.5299 24.759C66.7433 24.5221 67.0268 24.3847 67.3378 24.3847L72.5179 25.4056C73.3369 25.4056 74 24.7006 74 23.8451C74 22.9896 73.3314 22.2772 72.5116 22.2772C70.387 22.2772 68.8664 20.3959 67.3654 18.8189L67.3843 11.7848L64.5044 11.7922L64.4265 16.4539L62.7405 11L60.0032 11.9378L61.8136 18.044C60.5804 16.0879 58.6778 15.2554 57.4871 14.9107C57.2351 19.4433 60.2268 21.6084 60.3646 21.7063L58.751 23.3811C58.7471 23.3787 58.7479 23.3795 58.751 23.3828L49.2531 46.8009C49.2059 47.4129 48.7176 47.8694 48.1302 47.8694H36.8864C33.5766 47.8694 30.7424 50.0806 29.5872 53.0864C27.1475 55.5493 17.1141 66.7607 22.6344 77.5715ZM64.6903 21.0827C64.2146 21.0827 63.8319 20.6821 63.8319 20.1853C63.8319 19.6884 64.2139 19.287 64.6903 19.287C65.1659 19.287 65.5487 19.6892 65.5487 20.1853C65.5487 20.6813 65.1659 21.0827 64.6903 21.0827Z" fill="white"/>
</svg>
