<svg width="100" height="100" viewBox="0 0 100 100" fill="none" xmlns="http://www.w3.org/2000/svg">
<path d="M78.3359 38.2868C72.9313 35.2549 71.6816 33.5815 67.5022 31.794C66.2534 31.26 64.9438 31 63.6359 31C61.85 31 60.065 31.4838 58.4356 32.4124C56.8334 33.3262 55.0672 33.9715 53.2766 33.9715H32C25.3728 33.9715 20 39.2934 20 45.8577V47.3435C20 48.1644 20.6712 48.8293 21.5 48.8293H23.3778C24.1081 51.929 26.0075 54.7947 28.3962 56.3677L26.3816 61.6887C25.9542 62.817 25.8836 64.0474 26.1791 65.2165L27.5 68.5047C27.5811 68.8261 27.7684 69.1114 28.032 69.3153C28.2957 69.5192 28.6205 69.6301 28.955 69.6301H34.9334C35.9094 69.6301 36.6256 68.722 36.3884 67.7841L34.9306 63.9526L38.0206 57.7439H47.9291L50.0881 68.4359C50.2288 69.1305 50.8438 69.6301 51.5591 69.6301H57.5C58.4469 69.6301 59.1566 68.7721 58.9709 67.8528L56.4397 55.3203C60.6941 52.4843 65.9309 49.6483 70.7347 48.3046L72.5 51.8008L74.6234 47.5942C77.2916 47.3742 78.0406 46.7149 78.485 45.7547C79.1413 44.3367 80 42.4312 80 41.3326C80 40.0391 79.355 38.8579 78.3359 38.2868ZM68.2991 39.9146C68.3253 40.0391 68.375 40.1542 68.375 40.2861C68.375 41.3113 67.535 42.1433 66.5 42.1433C65.465 42.1433 64.625 41.3113 64.625 40.2861C64.625 40.1542 64.6747 40.0391 64.7009 39.9146H63.125C60.4006 39.9146 57.7006 41.1265 55.1703 42.33L45.6097 48.0641C44.5466 48.5693 43.4122 48.8293 42.2675 48.8293H38C34.0166 48.8293 30.6762 44.9774 29.4913 40.4105C30.6425 39.1838 32.1903 38.4289 33.9031 38.4289H53.2766C55.6831 38.4289 58.1741 37.7046 60.68 36.2754C61.6194 35.7396 62.6413 35.4573 63.6359 35.4573C64.3531 35.4573 65.0534 35.6013 65.7181 35.8863C68.2372 36.9635 69.1334 37.7826 72.4128 39.9146H68.2991Z" fill="white"/>
</svg>
