<svg width="100" height="24" viewBox="0 0 100 24" fill="none" xmlns="http://www.w3.org/2000/svg">
<path d="M8.34 17.97H13.47C14.27 17.97 14.84 18.07 15.18 18.27C15.54 18.47 15.78 18.76 15.9 19.14C16.02 19.52 16.08 20.02 16.08 20.64C16.08 21.26 16.02 21.76 15.9 22.14C15.78 22.52 15.57 22.79 15.27 22.95C14.97 23.09 14.7 23.18 14.46 23.22C14.24 23.24 13.9 23.25 13.44 23.25H2.61C1.91 23.25 1.3 22.99 0.780001 22.47C0.260001 21.95 0 21.33 0 20.61C0 19.89 0.260001 19.28 0.780001 18.78C1.3 18.26 2.1 17.52 3.18 16.56C4.26 15.6 5.24 14.74 6.12 13.98C7 13.2 7.48 12.77 7.56 12.69H3.33C2.19 12.69 1.47 12.5 1.17 12.12C0.83 11.68 0.66 11.1 0.66 10.38C0.66 9.66 0.71 9.13 0.809999 8.79C0.909999 8.43 1.03 8.17 1.17 8.01C1.31 7.83 1.51 7.69 1.77 7.59C2.11 7.49 2.63 7.44 3.33 7.44H13.08C13.78 7.44 14.39 7.69 14.91 8.19C15.43 8.69 15.69 9.32 15.69 10.08C15.69 10.82 15.39 11.48 14.79 12.06C14.19 12.64 12.04 14.61 8.34 17.97Z" fill="#7396DF"/>
<path d="M17.5781 15.36C17.5781 12.96 18.4181 10.98 20.0981 9.42C21.7781 7.86 23.6981 7.08 25.8581 7.08C28.0181 7.08 29.9281 7.86 31.5881 9.42C33.2481 10.96 34.0781 12.93 34.0781 15.33C34.0781 16.99 33.6481 18.47 32.7881 19.77C31.9281 21.05 30.8781 22 29.6381 22.62C28.4181 23.22 27.1481 23.52 25.8281 23.52C24.5081 23.52 23.2281 23.2 21.9881 22.56C20.7481 21.9 19.6981 20.94 18.8381 19.68C17.9981 18.4 17.5781 16.96 17.5781 15.36ZM23.8481 17.52C24.4881 18 25.1381 18.24 25.7981 18.24C26.4581 18.24 27.1181 17.99 27.7781 17.49C28.4381 16.99 28.7681 16.25 28.7681 15.27C28.7681 14.29 28.4581 13.56 27.8381 13.08C27.2181 12.6 26.5481 12.36 25.8281 12.36C25.1081 12.36 24.4381 12.61 23.8181 13.11C23.1981 13.61 22.8881 14.35 22.8881 15.33C22.8881 16.29 23.2081 17.02 23.8481 17.52Z" fill="#7396DF"/>
<path d="M35.5664 15.36C35.5664 12.96 36.4064 10.98 38.0864 9.42C39.7664 7.86 41.6864 7.08 43.8464 7.08C46.0064 7.08 47.9164 7.86 49.5764 9.42C51.2364 10.96 52.0664 12.93 52.0664 15.33C52.0664 16.99 51.6364 18.47 50.7764 19.77C49.9164 21.05 48.8664 22 47.6264 22.62C46.4064 23.22 45.1364 23.52 43.8164 23.52C42.4964 23.52 41.2164 23.2 39.9764 22.56C38.7364 21.9 37.6864 20.94 36.8264 19.68C35.9864 18.4 35.5664 16.96 35.5664 15.36ZM41.8364 17.52C42.4764 18 43.1264 18.24 43.7864 18.24C44.4464 18.24 45.1064 17.99 45.7664 17.49C46.4264 16.99 46.7564 16.25 46.7564 15.27C46.7564 14.29 46.4464 13.56 45.8264 13.08C45.2064 12.6 44.5364 12.36 43.8164 12.36C43.0964 12.36 42.4264 12.61 41.8064 13.11C41.1864 13.61 40.8764 14.35 40.8764 15.33C40.8764 16.29 41.1964 17.02 41.8364 17.52Z" fill="#7396DF"/>
<path d="M54.0047 2.64C54.0047 2.18 54.0147 1.84 54.0347 1.62C54.0747 1.38 54.1647 1.11 54.3047 0.810001C54.5847 0.270001 55.3647 0 56.6447 0C57.8647 0 58.6247 0.270001 58.9247 0.810001C59.0847 1.11 59.1747 1.38 59.1947 1.62C59.2347 1.86 59.2547 2.21 59.2547 2.67V16.56C59.2547 17.28 59.3147 17.74 59.4347 17.94C59.5547 18.12 59.8147 18.21 60.2147 18.21C60.6347 18.21 60.9147 18.23 61.0547 18.27C61.1947 18.29 61.3647 18.37 61.5647 18.51C61.9647 18.77 62.1647 19.48 62.1647 20.64C62.1647 21.9 61.9647 22.67 61.5647 22.95C61.0447 23.31 59.8047 23.37 57.8447 23.13C56.3047 22.93 55.3047 22.42 54.8447 21.6C54.2847 20.62 54.0047 19.06 54.0047 16.92V2.64Z" fill="#7396DF"/>
<path d="M63.8191 10.08C63.8191 9.62 63.8291 9.28 63.8491 9.06C63.8891 8.82 63.9791 8.55 64.1191 8.25C64.3991 7.73 65.1791 7.47 66.4591 7.47C67.4191 7.47 68.0991 7.64 68.4991 7.98C68.8391 8.26 69.0191 8.69 69.0391 9.27C69.0591 9.47 69.0691 9.76 69.0691 10.14V20.64C69.0691 21.1 69.0491 21.45 69.0091 21.69C68.9891 21.91 68.8991 22.17 68.7391 22.47C68.4791 22.99 67.7091 23.25 66.4291 23.25C65.1691 23.25 64.3991 22.98 64.1191 22.44C63.9791 22.14 63.8891 21.88 63.8491 21.66C63.8291 21.44 63.8191 21.09 63.8191 20.61V10.08ZM68.7391 4.53C68.5991 4.81 68.3391 5.01 67.9591 5.13C67.5791 5.25 67.0691 5.31 66.4291 5.31C65.8091 5.31 65.3091 5.25 64.9291 5.13C64.5491 5.01 64.2791 4.8 64.1191 4.5C63.9791 4.2 63.8891 3.94 63.8491 3.72C63.8291 3.48 63.8191 3.13 63.8191 2.67C63.8191 2.21 63.8291 1.87 63.8491 1.65C63.8891 1.41 63.9791 1.15 64.1191 0.870001C64.3991 0.330001 65.1791 0.0599995 66.4591 0.0599995C67.7191 0.0599995 68.4791 0.330001 68.7391 0.870001C68.8991 1.17 68.9891 1.44 69.0091 1.68C69.0491 1.9 69.0691 2.24 69.0691 2.7C69.0691 3.16 69.0491 3.51 69.0091 3.75C68.9891 3.97 68.8991 4.23 68.7391 4.53Z" fill="#7396DF"/>
<path d="M80.7056 7.47C82.0856 7.47 82.8956 7.85 83.1356 8.61C83.2556 8.99 83.3156 9.49 83.3156 10.11C83.3156 10.73 83.2456 11.23 83.1056 11.61C82.9856 11.97 82.7856 12.23 82.5056 12.39C82.0856 12.63 81.4756 12.75 80.6756 12.75L78.7556 12.63V20.67C78.7556 21.43 78.6556 22 78.4556 22.38C78.2756 22.74 77.9856 22.98 77.5856 23.1C77.2056 23.22 76.7056 23.28 76.0856 23.28C75.4656 23.28 74.9656 23.22 74.5856 23.1C74.2256 22.96 73.9656 22.75 73.8056 22.47C73.6456 22.17 73.5456 21.9 73.5056 21.66C73.4856 21.42 73.4756 21.07 73.4756 20.61V12.66H72.3956C71.8756 12.62 71.5056 12.5 71.2856 12.3C70.9056 11.92 70.7156 11.19 70.7156 10.11C70.7156 8.47 71.3056 7.65 72.4856 7.65H73.4756V6.06C73.4756 4.52 74.0256 3.13 75.1256 1.89C76.2256 0.630001 77.8156 0 79.8956 0C80.3556 0 80.6956 0.02 80.9156 0.0599995C81.1556 0.0800004 81.4256 0.170001 81.7256 0.33C82.2656 0.59 82.5356 1.36 82.5356 2.64C82.5356 3.6 82.3656 4.29 82.0256 4.71C81.7456 5.03 81.3056 5.21 80.7056 5.25C80.5256 5.25 80.2456 5.25 79.8656 5.25C79.1256 5.25 78.7556 5.5 78.7556 6V7.65L80.7056 7.47Z" fill="#7396DF"/>
<path d="M99.9185 13.47C99.9185 14.69 99.6085 15.6 98.9885 16.2C98.3885 16.78 97.7185 17.07 96.9785 17.07H89.8685C89.8685 17.63 90.1985 18.1 90.8585 18.48C91.5185 18.86 92.1785 19.05 92.8385 19.05C93.9985 19.05 94.9085 18.93 95.5685 18.69L95.8985 18.57C96.3785 18.35 96.7785 18.24 97.0985 18.24C97.7385 18.24 98.2885 18.69 98.7485 19.59C99.0085 20.13 99.1385 20.59 99.1385 20.97C99.1385 22.75 97.0085 23.64 92.7485 23.64C91.2685 23.64 89.9485 23.39 88.7885 22.89C87.6485 22.37 86.7585 21.69 86.1185 20.85C84.8585 19.23 84.2285 17.42 84.2285 15.42C84.2285 12.9 85.0385 10.89 86.6585 9.39C88.2985 7.87 90.3385 7.11 92.7785 7.11C95.5585 7.11 97.5985 8.09 98.8985 10.05C99.5785 11.09 99.9185 12.23 99.9185 13.47ZM93.5885 14.34C94.3485 14.34 94.7285 14.02 94.7285 13.38C94.7285 12.92 94.5485 12.55 94.1885 12.27C93.8485 11.99 93.3485 11.85 92.6885 11.85C92.0485 11.85 91.4085 12.12 90.7685 12.66C90.1285 13.18 89.8085 13.74 89.8085 14.34H93.5885Z" fill="#7396DF"/>
</svg>
