<svg width="100" height="100" viewBox="0 0 100 100" fill="none" xmlns="http://www.w3.org/2000/svg">
<g clip-path="url(#clip0)">
<path d="M27.1094 50.3528H56.225C58.6771 50.3528 60.4927 48.2373 59.8812 46.0747C57.7958 38.7033 50.451 29.8381 41.7094 29.8381H41.624C32.8833 29.8381 25.5375 38.7033 23.4531 46.0747C22.8406 48.2373 24.6573 50.3528 27.1094 50.3528ZM77.5292 37.6647L72.4615 33.9518C68.7979 32.0905 64.0771 34.1195 63.4188 38.2588C63.3625 38.6135 63.3333 38.9768 63.3333 39.3476V46.9572C63.3302 48.4403 62.8542 49.8613 61.951 51.0644C60.6573 52.7858 58.6958 53.772 56.5677 53.772H21.9375C20.8677 53.772 20 54.662 20 55.7593C20 56.6141 20.5333 57.3738 21.324 57.6441L31.5625 60.0054L26.8927 68.3032C26.251 69.4433 27.0531 70.8675 28.3365 70.8675H32.1854C32.7802 70.8675 33.3313 70.5417 33.6292 70.0128L37.8271 62.5548C40.5344 63.4652 42.5719 64.0293 46.6677 64.0293C50.7635 64.0293 52.8021 63.4652 55.5083 62.5548L59.7062 70.0128C60.0042 70.5417 60.5542 70.8675 61.15 70.8675H64.999C66.2823 70.8675 67.0833 69.4433 66.4427 68.3032L61.525 59.5674C63.7385 58.6677 65.7292 57.2402 67.2344 55.2368C68.701 53.2837 69.575 51.027 69.8688 48.6444H74.1C77.3594 48.6444 80.001 45.9347 80.001 42.5914C80.0007 41.6278 79.7763 40.6781 79.3464 39.8212C78.9165 38.9644 78.2935 38.2251 77.5292 37.6647ZM70 41.805C69.0792 41.805 68.3333 41.04 68.3333 40.0955C68.3333 39.151 69.0792 38.3859 70 38.3859C70.9208 38.3859 71.6667 39.151 71.6667 40.0955C71.6667 41.04 70.9208 41.805 70 41.805Z" fill="white"/>
</g>
<defs>
<clipPath id="clip0">
<rect width="60" height="54.7059" fill="white" transform="translate(20 23)"/>
</clipPath>
</defs>
</svg>
