<svg width="100" height="100" viewBox="0 0 100 100" fill="none" xmlns="http://www.w3.org/2000/svg">
<path d="M79.2482 29.0308H69.8497C70.4057 28.4493 70.8247 27.7399 70.9916 26.913C71.0863 26.4433 70.7216 26 70.2472 26H59C52.3728 26 47 31.428 47 38.1233H46.9925C41 38.1233 37.2238 34.6397 35.0244 29.5735C34.7225 28.8774 33.7485 28.8386 33.4269 29.5262C32.5147 31.4763 32 33.6528 32 35.9544C32 42.3039 36.7822 48.5597 44 49.9473V50.2475C36.7916 50.2475 31.4563 45.5431 29.6872 39.9247C29.1641 40.3197 28.6794 40.7639 28.25 41.2602V41.1541C23.7003 41.1541 20 44.8924 20 49.4889V54.7928C20 55.6301 20.6713 56.3082 21.5 56.3082H23C23.8288 56.3082 24.5 55.6301 24.5 54.7928V49.4889C24.5 48.2368 25.1441 47.1788 26.0731 46.4884C26.0534 46.7327 26 46.9667 26 47.2158C26 49.8336 27.11 52.1749 28.8631 53.8343L26.4519 60.3316C26.0245 61.4825 25.9539 62.7374 26.2494 63.9298L28.5791 73.3452C28.6599 73.6731 28.8469 73.9642 29.1104 74.1722C29.3739 74.3802 29.6987 74.4932 30.0331 74.4931H36.2169C37.1928 74.4931 37.9091 73.5669 37.6719 72.6102L35.2053 62.6407L37.4403 56.6179L47.0066 58.7329V72.9777C47.0066 73.815 47.6778 74.4931 48.5066 74.4931H54.5066C55.3353 74.4931 56.0066 73.815 56.0066 72.9777V56.1396C57.8572 54.2274 59.0066 51.6171 59.0066 48.7312C59.0066 48.7103 59 48.6914 58.9991 48.6705V38.9653L60.4991 39.6387L62.271 43.2094C62.9694 44.6178 64.6194 45.2505 66.0669 44.6651L69.1185 43.432C69.6757 43.2069 70.1533 42.8182 70.4896 42.3161C70.8258 41.8139 71.0053 41.2214 71.0047 40.6152L71 33.8896L79.6644 30.4184C80.2822 30.0035 79.9907 29.0308 79.2482 29.0308ZM65 35.0925C64.1713 35.0925 63.5 34.4143 63.5 33.5771C63.5 32.7398 64.1713 32.0616 65 32.0616C65.8288 32.0616 66.5 32.7398 66.5 33.5771C66.5 34.4143 65.8288 35.0925 65 35.0925Z" fill="white"/>
</svg>
