<svg width="100" height="100" viewBox="0 0 100 100" fill="none" xmlns="http://www.w3.org/2000/svg">
<path d="M71 40.4549C48.2141 40.4549 41.4416 59.5455 35.3638 59.5455C33.5094 59.5455 32 58.1743 32 56.4885V48.1372L36.6641 45.5369C37.075 45.2878 37.412 44.9503 37.645 44.5544C37.8781 44.1585 38 43.7164 38 43.2674V36.3658C38 35.2766 36.665 34.6272 35.6675 35.2314L29 39.2728L22.3325 35.2314C21.335 34.628 20 35.2774 20 36.3666V43.2674C20 44.1793 20.5016 45.0307 21.3359 45.5361L26 48.1372V56.4885C26 61.1819 30.2 65 35.3638 65H74C77.3141 65 80 62.5583 80 59.5455V48.6366C80 44.1247 75.9631 40.4549 71 40.4549ZM60.5 51.3638C61.3288 51.3638 62 51.9741 62 52.7275C62 53.4809 61.3288 54.0911 60.5 54.0911C59.6712 54.0911 59 53.4809 59 52.7275C59 51.9741 59.6712 51.3638 60.5 51.3638Z" fill="white"/>
</svg>
