<svg width="100" height="100" viewBox="0 0 100 100" fill="none" xmlns="http://www.w3.org/2000/svg">
<path d="M78.335 36.407L73.9992 34.3881V32.6818C73.9992 31.1131 72.6557 29.8409 70.9992 29.8409H64.9993C64.9993 28.2722 63.6559 27 61.9993 27C60.3428 27 58.9994 28.2722 58.9994 29.8409V36.6609C57.356 35.2475 54.5866 35.2528 52.9414 36.6982C52.1351 35.9737 51.0514 35.5227 49.8486 35.5227C48.6796 35.5227 47.5986 35.9489 46.7886 36.6591C45.9787 35.9489 44.9296 35.5227 43.7287 35.5227C42.5596 35.5227 41.4787 35.9489 40.6997 36.6591C39.8897 35.9489 38.8097 35.5227 37.6397 35.5227C36.4097 35.5227 35.2988 36.0057 34.4888 36.7434C33.4398 35.9196 32.0298 35.5227 30.5898 35.8352C28.9408 36.1761 27.6808 37.34 27.2299 38.7898C25.6699 38.5341 24.0209 39.0739 22.97 40.3239C21.89 41.5739 21.71 43.2216 22.3109 44.6127C20.93 45.3523 20 46.7434 20 48.3343C20 49.9528 20.959 51.3457 22.339 52.0559C21.7381 53.4489 21.949 55.0948 23 56.3448C24.0799 57.5957 25.729 58.1355 27.2889 57.8789C27.6714 59.0872 28.6614 60.0771 29.958 60.5662L29.3824 62.0204C28.955 63.0994 28.8844 64.2761 29.1799 65.394L30.7595 71.3786C30.8407 71.6858 31.0279 71.9586 31.2915 72.1536C31.5552 72.3485 31.88 72.4545 32.2145 72.4545H38.3981C39.3741 72.4545 40.0903 71.5863 39.8531 70.6896L38.1366 64.1857L39.5203 60.6914C39.9638 60.5005 40.3847 60.267 40.7297 59.9537C41.5397 60.6639 42.6206 61.0909 43.7896 61.0909C44.9596 61.0909 46.0396 60.6639 46.8496 59.9537C47.6596 60.6639 48.7096 61.0909 49.9095 61.0909C51.0833 61.0909 52.1473 60.6488 52.946 59.9395C52.962 59.9537 52.9835 59.9581 52.9995 59.9723V71.0341C52.9995 71.8189 53.6707 72.4545 54.4995 72.4545H60.4994C61.3281 72.4545 61.9993 71.8189 61.9993 71.0341V56.3564L65.3274 54.255C66.1492 53.7361 66.8231 53.0331 67.2891 52.2084C67.7552 51.3838 67.9991 50.4629 67.9992 49.5275V44.0455H76.2172C77.0854 44.0455 77.8822 43.6104 78.3144 42.8967C79.026 41.7195 80 39.927 80 38.938C79.9996 38.411 79.8435 37.8946 79.5492 37.4473C79.255 37 78.8344 36.6396 78.335 36.407ZM67.9992 36.9432C67.1705 36.9432 66.4993 36.3075 66.4993 35.5227C66.4993 34.7379 67.1705 34.1023 67.9992 34.1023C68.828 34.1023 69.4992 34.7379 69.4992 35.5227C69.4992 36.3075 68.828 36.9432 67.9992 36.9432Z" fill="white"/>
</svg>
