<svg width="100" height="100" viewBox="0 0 100 100" fill="none" xmlns="http://www.w3.org/2000/svg">
<path d="M76.25 31.25C74.1758 31.25 72.5 32.9258 72.5 35C72.5 35.1289 72.5586 35.2344 72.5703 35.3516L62.75 32.5977L64.0508 31.9414C65.5039 31.2148 66.7461 30.1133 67.6484 28.7656L69.7695 25.5781C70.0625 25.1445 69.9453 24.5703 69.5117 24.2773L67.9531 23.2344C67.5195 22.9414 66.9453 23.0586 66.6523 23.4922L64.543 26.6797C64.0039 27.5 63.2539 28.1562 62.375 28.5898L57.3828 31.0859L53.4219 29.9727L54.3945 28.7656C55.1914 27.7695 55.625 26.5273 55.625 25.25V20.9375C55.625 20.4219 55.2031 20 54.6875 20H52.8125C52.2969 20 51.875 20.4219 51.875 20.9375V25.25C51.875 25.6719 51.7344 26.082 51.4648 26.4219L49.4961 28.8711L47.6094 28.3438C46.8008 28.1211 46.2383 27.3828 46.2383 26.5391V20.9375C46.2383 20.4219 45.8164 20 45.3008 20H43.4258C42.9102 20 42.4883 20.4219 42.4883 20.9375V26.5391C42.4883 29.0586 44.1641 31.2734 46.5898 31.9531L55.8359 34.5547L51.875 42.5H27.5C23.3633 42.5 20 45.8633 20 50V57.5L23.75 55.0039V60.7344L22.3555 64.4609C21.8164 65.8906 21.7344 67.4375 22.0977 68.9141L25.0156 78.582C25.2266 79.4141 25.9766 80 26.832 80H34.3086C35.5273 80 36.418 78.8516 36.125 77.668L33.043 67.3086L35.3164 61.25H50V78.125C50 79.1562 50.8438 80 51.875 80H59.375C60.4062 80 61.25 79.1562 61.25 78.125V53.75L65 46.25H72.5C74.5742 46.25 76.25 44.5742 76.25 42.5V39.2305C76.25 39.0547 76.1914 38.9023 76.168 38.7383C76.1914 38.7383 76.2266 38.75 76.25 38.75C78.3242 38.75 80 37.0742 80 35C80 32.9258 78.3242 31.25 76.25 31.25ZM65 40.625C63.9688 40.625 63.125 39.7812 63.125 38.75C63.125 37.7188 63.9688 36.875 65 36.875C66.0312 36.875 66.875 37.7188 66.875 38.75C66.875 39.7812 66.0312 40.625 65 40.625Z" fill="white"/>
</svg>
