<svg width="100" height="100" viewBox="0 0 100 100" fill="none" xmlns="http://www.w3.org/2000/svg">
<path d="M78.335 37.2242L73.9991 35.2446V33.5714C73.9991 32.0332 72.6556 30.7857 70.9991 30.7857H64.1581C62.51 29.0882 60.1484 28 57.4991 28C52.5359 28 48.4991 31.7485 48.4991 36.3571C48.4991 40.4887 51.7522 43.9064 56.0009 44.5733C55.5106 44.6499 55.0137 44.7143 54.4991 44.7143C49.6672 44.7143 45.7559 41.1703 45.5403 36.7332C44.9872 36.5043 44.3881 36.3571 43.7281 36.3571C42.5591 36.3571 41.4781 36.775 40.6991 37.4714C39.8891 36.775 38.8091 36.3571 37.6391 36.3571C36.4091 36.3571 35.2981 36.8307 34.4881 37.5541C33.4391 36.7463 32.0291 36.3571 30.5891 36.6636C28.94 36.9979 27.68 38.1391 27.2291 39.5607C25.6691 39.31 24.02 39.8393 22.9691 41.065C21.8891 42.2907 21.7091 43.9064 22.31 45.2706C20.93 45.967 20 47.3598 20 48.9198C20 50.5068 20.9591 51.8727 22.3391 52.5691C21.7381 53.935 21.9491 55.549 23 56.7747C24.08 58.0013 25.7291 58.5306 27.2891 58.252C27.6716 59.4603 28.6616 60.4344 29.9581 60.9141L29.3825 62.34C28.9551 63.3981 28.8845 64.5518 29.18 65.6481L30.7597 71.5163C30.8408 71.8177 31.0281 72.0851 31.2917 72.2763C31.5553 72.4675 31.8802 72.5714 32.2147 72.5714H38.3984C39.3744 72.5714 40.0906 71.72 39.8534 70.8408L38.1369 64.4633L39.5206 61.0368C39.9641 60.8497 40.385 60.6207 40.73 60.3134C41.54 61.0098 42.6209 61.4286 43.79 61.4286C44.96 61.4286 46.04 61.0098 46.85 60.3134C47.66 61.0098 48.71 61.4286 49.91 61.4286C51.0809 61.4286 52.1478 60.9968 52.9531 60.3047C52.9681 60.3178 52.985 60.3282 53.0009 60.3413V71.1786C53.0009 71.9481 53.6722 72.5714 54.5009 72.5714H60.5009C61.3297 72.5714 62.0009 71.9481 62.0009 71.1786V56.786L65.3272 54.7254C66.149 54.2166 66.8229 53.5273 67.2889 52.7187C67.755 51.91 67.999 51.007 67.9991 50.0898V44.7143H76.2172C77.0853 44.7143 77.8822 44.2877 78.3144 43.5878C79.0259 42.4335 80 40.6759 80 39.7061C79.9996 39.1893 79.8435 38.683 79.5492 38.2443C79.255 37.8057 78.8344 37.4523 78.335 37.2242ZM52.9991 36.3571C52.9991 34.0528 55.0175 32.1786 57.4991 32.1786C59.9806 32.1786 61.9991 34.0528 61.9991 36.3571C61.9991 38.6615 59.9806 40.5357 57.4991 40.5357C55.0175 40.5357 52.9991 38.6615 52.9991 36.3571ZM67.9991 37.75C67.1703 37.75 66.4991 37.1267 66.4991 36.3571C66.4991 35.5876 67.1703 34.9643 67.9991 34.9643C68.8278 34.9643 69.4991 35.5876 69.4991 36.3571C69.4991 37.1267 68.8278 37.75 67.9991 37.75Z" fill="white"/>
</svg>
