<svg width="100" height="100" viewBox="0 0 100 100" fill="none" xmlns="http://www.w3.org/2000/svg">
<path d="M72.7531 74.5867L63.3573 58.4424V51.3394H64.0956C67.2386 51.3394 69.7859 48.604 69.7859 45.2288C69.7859 44.2562 69.5697 43.2976 69.1553 42.4327C68.7409 41.5678 68.1403 40.8217 67.4033 40.2562L62.5166 36.5079C62.4061 36.4496 62.2886 36.428 62.1771 36.3773C62.9606 35.0301 63.7049 33.1672 64.2403 31.0207C65.3773 26.4645 65.1523 22.44 63.738 22.0333C62.3237 21.6267 60.2555 24.9899 59.1185 29.5473C58.8452 30.6421 58.6554 31.7013 58.5369 32.6916C58.4184 31.7013 58.2285 30.6421 57.9553 29.5473C56.8172 24.9899 54.749 21.6267 53.3347 22.0333C51.9204 22.44 51.6954 26.4645 52.8325 31.0207C53.5296 33.8144 54.5773 36.1487 55.6088 37.4517C54.6938 38.3071 54.0117 39.4472 53.7978 40.8549C53.7435 41.213 53.7154 41.5797 53.7154 41.954V49.6136H52.4297C44.0735 49.6136 37.0683 55.7371 35.0403 64.0256C34.3724 63.6523 33.626 63.4204 32.8215 63.4204C30.1586 63.4204 28 65.7385 28 68.598C28 71.4575 30.1586 73.7756 32.8215 73.7756C33.618 73.7756 34.3583 73.548 35.0202 73.1812C36.0337 75.564 38.2586 77.2273 40.8572 77.2273H55.3216C56.2095 77.2273 56.9287 76.455 56.9287 75.5014V73.7756C56.9287 71.8696 55.4893 70.3238 53.7144 70.3238H51.4453L58.9136 63.8325L66.2371 76.4161C66.3816 76.6644 66.5825 76.8692 66.8209 77.0111C67.0594 77.153 67.3276 77.2274 67.6002 77.2273H71.3911C72.6527 77.2273 73.4221 75.7366 72.7531 74.5867ZM61.7502 44.436C60.8622 44.436 60.143 43.6637 60.143 42.7102C60.143 41.7566 60.8622 40.9843 61.7502 40.9843C62.6381 40.9843 63.3573 41.7566 63.3573 42.7102C63.3573 43.6637 62.6381 44.436 61.7502 44.436Z" fill="white"/>
</svg>
