<svg width="100" height="100" viewBox="0 0 100 100" fill="none" xmlns="http://www.w3.org/2000/svg">
<path d="M53.7508 39.5892V36.296C50.4463 32.0419 48.2315 27.0026 47.4112 21.6234C47.1651 20.0413 45.1847 19.4202 44.1535 20.6507C41.6809 23.5688 39.7357 26.9909 38.4232 30.7879C42.4309 35.2764 47.7979 38.3586 53.7508 39.5892ZM66.8754 27.4948C61.6959 27.4948 57.5007 31.702 57.5007 36.882V43.8433C45.2667 43.1167 34.8843 35.5811 30.1969 24.8931C29.5524 23.4282 27.4782 23.3461 26.7986 24.7876C24.8533 28.9011 23.7518 33.4951 23.7518 38.3469C23.7518 46.6442 27.7478 54.3907 33.7241 60.1332C35.271 61.6216 36.7826 62.8521 38.2826 63.9772L21.4198 68.1961C20.166 68.5125 19.6035 69.9658 20.3066 71.0556C22.3456 74.2082 27.3845 79.5522 38.2592 79.9975C39.1966 80.0327 40.1341 79.6928 40.8489 79.0717L48.4893 72.4971H57.5007C67.8598 72.4971 76.2501 64.1178 76.2501 53.7579V34.9952L80 27.4948H66.8754ZM66.8754 38.7571C65.8442 38.7571 65.0005 37.9133 65.0005 36.882C65.0005 35.8507 65.8442 35.0069 66.8754 35.0069C67.9066 35.0069 68.7504 35.8507 68.7504 36.882C68.7504 37.9133 67.9066 38.7571 66.8754 38.7571Z" fill="white"/>
</svg>
