<svg width="100" height="100" viewBox="0 0 100 100" fill="none" xmlns="http://www.w3.org/2000/svg">
<g clip-path="url(#clip0)">
<path d="M76.9997 28.9464H73.9997L72.7575 27.7264C72.2004 27.179 71.5389 26.7447 70.8108 26.4485C70.0828 26.1522 69.3024 25.9998 68.5143 26H66.5934C65.549 26 64.5234 26.2679 63.6168 26.7762L49.2497 34.8393H43.9997C34.0584 34.8393 25.9997 42.7541 25.9997 52.5179V52.6661C25.9997 55.6816 24.4997 58.3877 22.2909 60.4824C20.5856 62.1011 19.6565 64.5043 20.1168 67.0935C20.7506 70.666 24.1387 73.1429 27.8306 73.1429H37.9997C39.6562 73.1429 40.9997 71.8234 40.9997 70.1964C40.9997 68.5694 39.6562 67.25 37.9997 67.25H27.4997C26.6718 67.25 25.9997 66.5898 25.9997 65.7768C25.9997 64.9638 26.6718 64.3036 27.4997 64.3036H48.4997C49.3284 64.3036 49.9997 63.6443 49.9997 62.8304V61.3571C49.9997 59.7302 48.6562 58.4107 46.9997 58.4107H40.9997L55.0143 50.9986L61.9997 64.3036H69.4997C70.3284 64.3036 70.9997 63.6443 70.9997 62.8304V61.3571C70.9997 59.7302 69.6562 58.4107 67.9997 58.4107H65.354L60.1875 48.263L68.8565 43.6786H70.9997C75.9703 43.6786 79.9997 39.7211 79.9997 34.8393V31.8929C79.9997 30.2659 78.6562 28.9464 76.9997 28.9464ZM67.9997 30.4196C68.8284 30.4196 69.4997 31.0789 69.4997 31.8929C69.4997 32.7068 68.8284 33.3661 67.9997 33.3661C67.1709 33.3661 66.4997 32.7068 66.4997 31.8929C66.4997 31.0789 67.1709 30.4196 67.9997 30.4196ZM70.9997 39.2589H67.7222L58.1747 44.3084L56.8837 41.7717L67.9997 36.3125H75.2231C74.6025 38.0233 72.9525 39.2589 70.9997 39.2589Z" fill="white"/>
</g>
<defs>
<clipPath id="clip0">
<rect width="60" height="47.1429" fill="white" transform="translate(20 26)"/>
</clipPath>
</defs>
</svg>
