<svg width="1194" height="813" viewBox="0 0 1194 813" fill="none" xmlns="http://www.w3.org/2000/svg">
<g clip-path="url(#clip0)">
<path d="M409.843 931.111C344.964 919.994 -115.338 534.451 -179.026 517.306C-256.047 496.559 -377.286 443.736 -457.554 459.827C-538.287 475.999 -547.768 635.183 -575.884 698.955C-591.742 734.945 -616.564 768.75 -644.263 796.551C-655.172 807.473 -672.321 818.03 -680.513 831.352C-680.706 831.626 -680.84 831.944 -680.815 832.293C-679.987 838.315 -583.125 862.611 -570.878 865.982C-420.665 907.024 22.6167 1310.53 168.609 1233.94C230.146 1201.63 268.308 1149.12 295.002 1086.51C307.452 1057.33 318.411 1025.31 339.589 1001.03" fill="url(#paint0_linear)"/>
<path d="M290.868 957.651C306.521 951.798 317.326 926.174 316.841 912.558C316.079 890.967 280.755 891.634 280.617 886.388C279.924 862.705 316.322 792.564 271.924 781.587C251.63 776.583 228.323 791.23 216.098 804.057C210.073 810.365 204.843 817.4 200.376 824.648C200.168 824.981 199.856 825.982 199.787 825.618C195.943 808.06 217.345 787.47 198.402 759.298C193.553 752.081 185.623 748.806 176.238 748.503C147.667 747.593 124.81 770.124 111.685 789.956C110.023 792.443 106.456 801.753 103.269 803.057C102.854 803.239 99.5639 796.87 99.1483 796.325C95.4081 791.503 89.5901 787.591 82.9062 786.712C70.0926 785.014 56.7249 798.781 51.4263 798.144C48.1363 797.75 49.21 772.217 49.0022 768.123C48.1018 747.927 44.7078 703.35 14.6132 698.892C-17.213 694.192 -29.992 735.251 -34.4248 754.992C-35.0828 757.964 -36.5374 778.433 -40.3814 779.373C-41.3857 779.616 -55.7577 762.361 -61.9568 757.631C-72.9695 749.261 -81.8352 756.145 -92.6748 752.415C-106.943 747.502 -112.657 732.795 -129.523 730.157C-169.314 723.91 -180.639 819.341 -167.998 841.235" fill="url(#paint1_linear)"/>
<path d="M109.002 902.279C126.471 886.844 159.951 812.792 148.488 792.656C137.51 773.4 110.337 811.639 108.669 803.24C106.971 794.688 111.702 782.952 113.006 774.583C117.737 744.562 122.528 701.531 107.425 673.602C96.9324 654.195 81.5872 670.115 74.9457 683.337C59.7823 713.509 55.7489 749.747 53.2621 782.952C50.8967 814.247 52.6253 846.391 48.0459 877.535" fill="url(#paint2_linear)"/>
<path d="M16.4966 871.871C26.8522 855.22 32.4463 792.513 16.0637 780.158C8.27202 774.263 -8.64331 787.284 -11.3737 782.522C-20.3642 766.77 -27.2568 716.052 -34.1828 695.072C-38.5448 681.884 -57.0917 623.273 -80.2337 634.396C-101.977 644.852 -104.841 724.211 -104.874 746.922C-104.874 756.647 -104.741 766.404 -104.808 776.128C-104.808 777.693 -103.875 784.953 -105.174 785.885C-105.806 786.352 -108.57 780.424 -108.77 780.024C-112.533 772.531 -124.919 743.626 -137.007 750.552C-154.821 760.776 -142.834 815.957 -139.637 831.675C-137.739 841 -135.575 850.291 -133.81 859.649C-133.177 863.046 -135.275 871.005 -132.012 869.873" fill="url(#paint3_linear)"/>
</g>
<defs>
<linearGradient id="paint0_linear" x1="-367.797" y1="377.504" x2="-325.12" y2="772.04" gradientUnits="userSpaceOnUse">
<stop stop-color="#F3B562"/>
<stop offset="1" stop-color="#F59999"/>
</linearGradient>
<linearGradient id="paint1_linear" x1="75.344" y1="837.693" x2="102.342" y2="625.757" gradientUnits="userSpaceOnUse">
<stop stop-color="#5C4B51"/>
<stop offset="1" stop-color="#F3B562"/>
</linearGradient>
<linearGradient id="paint2_linear" x1="97.3896" y1="882.183" x2="109.012" y2="652.002" gradientUnits="userSpaceOnUse">
<stop stop-color="#5C4B51"/>
<stop offset="1" stop-color="#F3B562"/>
</linearGradient>
<linearGradient id="paint3_linear" x1="-64.964" y1="897.233" x2="-52.1987" y2="644.454" gradientUnits="userSpaceOnUse">
<stop stop-color="#5C4B51"/>
<stop offset="1" stop-color="#F3B562"/>
</linearGradient>
<clipPath id="clip0">
<rect width="1194" height="813" fill="white"/>
</clipPath>
</defs>
</svg>
