<svg width="147" height="147" viewBox="0 0 147 147" fill="none" xmlns="http://www.w3.org/2000/svg">
    <circle cx="73.5" cy="73.5" r="73.5" fill="white"/>
    <path d="M120.283 71.6748C119.426 70.7189 98.8154 48.2383 73 48.2383C47.1847 48.2383 26.574 70.7189 25.7169 71.6748C24.761 72.7432 24.761 74.3583 25.7169 75.4267C26.574 76.3826 47.1851 98.8632 73 98.8632C98.815 98.8632 119.426 76.3826 120.283 75.4267C121.239 74.3583 121.239 72.7432 120.283 71.6748ZM73 93.2382C62.1455 93.2382 53.3126 84.4053 53.3126 73.5507C53.3126 62.6962 62.1455 53.8633 73 53.8633C83.8546 53.8633 92.6875 62.6962 92.6875 73.5507C92.6875 84.4053 83.8546 93.2382 73 93.2382Z" fill="#368185"/>
    <path d="M75.8126 67.9258C75.8126 65.0964 77.2172 62.6073 79.3539 61.0764C77.4365 60.0948 75.2979 59.4883 73.0001 59.4883C65.2464 59.4883 58.9376 65.7971 58.9376 73.5508C58.9376 81.3044 65.2464 87.6132 73.0001 87.6132C79.9421 87.6132 85.6878 82.5444 86.823 75.9211C81.1593 77.7446 75.8126 73.4611 75.8126 67.9258Z" fill="#368185"/>
</svg>
