<svg width="71" height="78" viewBox="0 0 71 78" fill="none" xmlns="http://www.w3.org/2000/svg">
<path d="M7.48535 31.684C5.8421 31.8766 4.66495 33.3632 4.85422 35.0068L7.52084 58.1643V58.8354C7.52084 58.8584 7.53945 58.877 7.5624 58.877C7.58376 58.877 7.60164 58.8932 7.60377 58.9144L7.63731 59.2499C7.66034 59.4801 7.8676 59.6468 8.09744 59.6199L45.3211 55.2663C46.9673 55.0737 48.1455 53.5827 47.9521 51.9366L45.4055 30.2599C45.2123 28.6147 43.7221 27.4375 42.0769 27.6303L7.48535 31.684ZM40.4161 29.7721C42.0604 29.5772 43.5517 30.7514 43.7481 32.3956L44.4126 37.9611C44.5611 39.2052 43.9208 40.4107 42.8067 40.9841L28.5055 48.3451C28.3471 48.4243 28.1095 48.3451 27.9512 48.1867L20.9074 41.8396C20.7994 41.7422 20.6874 41.6421 20.5475 41.6022C20.3489 41.5456 20.1293 41.576 19.9532 41.6933C19.1508 42.3453 16.0617 45.1569 13.1598 47.8353C11.3465 49.509 8.37705 48.4245 8.08811 45.9738L7.00084 36.7521C6.80691 35.1074 7.98246 33.6166 9.62707 33.4217L40.4161 29.7721Z" fill="white"/>
<path d="M29.5365 39.8718C30.7173 39.8718 31.6745 38.9146 31.6745 37.7338C31.6745 36.5529 30.7173 35.5957 29.5365 35.5957C28.3557 35.5957 27.3984 36.5529 27.3984 37.7338C27.3984 38.9146 28.3557 39.8718 29.5365 39.8718Z" fill="white"/>
<path d="M68.4852 25.1171C69.3227 23.6877 68.8431 21.8501 67.414 21.0123L35.8468 2.50739C34.4174 1.66949 32.5794 2.14896 31.7415 3.57833L19.2072 24.9603C18.7308 25.773 17.9003 26.3148 16.9645 26.4232L2.98413 28.0432C1.3367 28.2341 0.156722 29.7255 0.349875 31.3727L5.35209 74.0304C5.54505 75.676 7.03549 76.8536 8.68107 76.6606L51.3455 71.6576C52.9901 71.4648 54.1674 69.976 53.976 68.3313L52.3005 53.9343C52.2252 53.2871 52.3626 52.633 52.692 52.0709L68.4852 25.1171ZM32.3774 6.20137C33.2134 4.76758 35.0547 4.28498 36.4864 5.12441L64.8003 21.7245C66.2297 22.5625 66.709 24.4006 65.871 25.8299L54.0806 45.9394C53.3442 47.1954 51.4332 46.7935 51.2651 45.3474L51.0787 43.7443C51.04 43.4118 51.3556 43.1491 51.6755 43.2476C51.881 43.3108 52.1029 43.2245 52.2117 43.0392L61.9895 26.3833C62.8282 24.9544 62.35 23.1162 60.9212 22.2774L37.9098 8.76788C36.479 7.92788 34.638 8.4088 33.8008 9.84129L25.0067 24.889C24.7675 25.2983 24.3514 25.5728 23.881 25.6316C22.63 25.788 21.7418 24.4431 22.3769 23.3539L32.3774 6.20137ZM48.9707 25.6666C48.7776 24.0212 47.2873 22.8439 45.6419 23.0367L32.9954 24.5191C30.534 24.8076 28.8041 22.1563 30.0597 20.0196L34.5122 12.4425C35.3509 11.0153 37.1871 10.5371 38.6154 11.3741L58.3072 22.9132C59.7365 23.7508 60.2164 25.5883 59.3791 27.0178L51.2824 40.8414C51.2092 40.9665 51.0555 41.0192 50.9209 40.9654C50.8211 40.9255 50.7513 40.8342 50.7387 40.7275L48.9707 25.6666ZM10.3442 74.5245C8.69853 74.7164 7.20885 73.5379 7.01695 71.8922L2.48553 33.0318C2.29362 31.3861 3.47216 29.8964 5.11787 29.7045L43.9782 25.1731C45.624 24.9812 47.1136 26.1597 47.3055 27.8054L51.8369 66.6658C52.0289 68.3115 50.8503 69.8012 49.2046 69.9931L10.3442 74.5245Z" fill="white"/>
</svg>
