<svg width="48" height="71" viewBox="0 0 48 71" fill="none" xmlns="http://www.w3.org/2000/svg">
<path fill-rule="evenodd" clip-rule="evenodd" d="M14.5 5C14.5 6.49286 15.4471 6.65106 16.5 7C18.7099 8.2145 19.1387 8.66462 19.4722 10.7026C19.5777 12.377 18.9787 14.0077 16.4362 16.1886C12.1869 19.8286 10.2452 23.1464 10.4999 26.3319C10.9881 32.4075 19.398 37.5403 27.5306 42.5029C32.7099 45.6659 37.6739 48.6938 40.6315 51.9975C40.6104 50.8452 40.4753 49.4733 40.6793 48.3674C36.9141 45.6898 32.5171 41.5335 29.4864 37.7697C26.3994 33.9425 24.3662 29.8664 24.3071 24.8981C24.3029 24.4901 24.279 22.4401 24.8235 22.4372C25.171 22.4344 25.4355 23.1872 25.845 24.6421C27.3505 29.9958 27.9035 31.7222 31.483 36.1572C34.6882 40.1306 38.4309 43.5188 41.4278 45.756C42.2383 46.3624 43.7199 47.3712 44.6049 47.8651C38.3366 30.8555 31.1227 15.8763 20.9738 17.0638C20.4209 17.1215 19.927 16.8499 19.6808 16.3772C19.436 15.903 19.5105 15.3247 19.8707 14.9293C22.3696 12.149 23.5037 7.49317 22.2964 4.96473C21.372 3.03007 18.8591 2.26746 17.0876 2.6755C16.1688 2.88233 14.5 3.50714 14.5 5ZM18.7099 6.32111C17.9347 6.32111 17.3071 5.69358 17.3071 4.9183C17.3071 4.14303 17.9361 3.51549 18.7099 3.51549C19.4852 3.51549 20.1127 4.14303 20.1127 4.9183C20.1127 5.69358 19.4852 6.32111 18.7099 6.32111ZM0.146973 12.0731C4.94495 9.08874 9.71901 5.5177 13.5616 1.90444C14.2567 1.06304 15.2683 0.455201 16.5178 0.170981C19.2812 -0.457962 23.0717 0.621231 24.6152 3.8574C26.0997 6.96412 25.1963 11.2795 23.3377 14.4805C33.5611 15.4485 40.6399 29.229 47.9241 49.4776C48.2097 50.2767 47.6568 51.1378 46.8083 51.1927C45.9191 51.2673 44.6359 50.7931 43.1486 49.9531L43.1754 50.9817C43.2274 52.604 43.2893 54.4458 42.7293 55.9865C42.3466 57.0629 40.8369 57.122 40.3585 56.092C38.9388 53.0345 34.6446 49.9714 29.8747 46.9688L31.3605 52.7939C31.3985 52.9403 31.4112 53.0922 31.3957 53.2414L29.9 67.7816H31.5505C32.261 67.7816 32.8365 68.3571 32.8365 69.0676C32.8365 69.7754 32.2639 70.3509 31.5505 70.3509H23.9173C23.211 70.3509 22.6341 69.7754 22.6341 69.069C22.6341 68.3571 23.2068 67.7816 23.9173 67.7816L27.3111 67.7802L28.811 53.2034L26.7244 45.0229L26.1897 44.6965C17.5083 39.399 8.53147 33.9186 7.94051 26.5401C7.61127 22.4738 9.84423 18.4511 14.7632 14.2399C17.2508 12.1054 17.4703 11.053 17.4492 10.7026C17.4492 9.5 16.4629 9.45035 15.5343 8.84251C10.3676 9.56995 5.34876 10.9052 0.443855 12.6936C0.10054 12.8188 -0.175236 12.27 0.146973 12.0731Z" fill="white"/>
</svg>
