<svg width="58" height="66" viewBox="0 0 58 66" fill="none" xmlns="http://www.w3.org/2000/svg">
<path d="M30.4178 30.3871L28.0386 28.0079C28.6022 26.7676 29.3065 25.895 30.1712 25.3682L33.0781 29.0569L30.4178 30.3871Z" fill="white"/>
<path d="M30.6322 42.1576L29.3131 40.1788L32.4103 36.7334L35.8125 37.44L35.0775 40.3793L30.6322 42.1576Z" fill="white"/>
<path d="M45.1599 4.36911C45.3349 4.19422 45.4504 3.96871 45.49 3.72453C45.5297 3.48035 45.4915 3.22987 45.3809 3.0086L43.8763 0H46.053L48.0602 3.01096C48.1679 3.17238 48.3137 3.30473 48.4847 3.39627C48.6558 3.48781 48.8468 3.53571 49.0408 3.53571H51.1896C51.3998 3.53572 51.6062 3.59194 51.7873 3.69853C51.9685 3.80512 52.1178 3.95821 52.2199 4.14194L57.0078 12.7602L55.9618 13.8062L53.2302 11.985C53.0809 11.8855 52.9107 11.8213 52.7328 11.7975C52.5549 11.7737 52.3739 11.7908 52.2037 11.8476C52.1801 11.8553 49.3162 12.7532 47.5169 10.9536C47.3761 10.8129 47.2019 10.71 47.0106 10.6548C46.8193 10.5995 46.6171 10.5937 46.4229 10.6377C46.2287 10.6818 46.0489 10.7743 45.9001 10.9067C45.7514 11.039 45.6386 11.207 45.5723 11.3947L43.6746 16.772L40.4549 17.7295C40.1911 17.808 39.963 17.9764 39.8102 18.2054L37.4531 21.7411C37.2912 21.9839 37.2251 22.2782 37.2677 22.5669C37.3103 22.8557 37.4585 23.1183 37.6837 23.304L40.5383 25.6585L38.5009 31.4312C38.4342 31.6201 38.4169 31.8228 38.4504 32.0203C38.4839 32.2178 38.5672 32.4035 38.6924 32.5598C38.8552 32.7675 42.7035 37.8235 37.5285 44.0332C37.3863 44.2041 37.2951 44.4117 37.2657 44.6321L34.9086 62.3106C34.8846 62.4901 34.9024 62.6728 34.9605 62.8443C35.0185 63.0158 35.1154 63.1717 35.2434 63.2997L36.9098 64.9643C37.0196 65.0735 37.1067 65.2034 37.1659 65.3464C37.2252 65.4895 37.2555 65.6429 37.2551 65.7977V66H33.7194C33.4069 65.9996 33.1073 65.8754 32.8864 65.6544C32.6655 65.4335 32.5412 65.1339 32.5408 64.8214V48.3214C32.5408 48.147 32.5021 47.9748 32.4275 47.8172C32.3529 47.6596 32.2442 47.5205 32.1093 47.4099C31.9744 47.2994 31.8167 47.2201 31.6475 47.1779C31.4783 47.1357 31.3018 47.1316 31.1308 47.1658C29.2999 47.4853 27.4457 47.652 25.5872 47.6644L26.5634 45.2233C26.649 45.0091 26.6699 44.7746 26.6236 44.5487C26.5772 44.3227 26.4656 44.1154 26.3025 43.9523L23.9453 41.5952C23.7244 41.3742 23.4247 41.2501 23.1122 41.25H19.5765C19.3577 41.25 19.1431 41.311 18.957 41.426C18.7708 41.5411 18.6203 41.7057 18.5224 41.9015L17.3439 44.2586C17.2746 44.397 17.2333 44.5477 17.2223 44.7021C17.2113 44.8565 17.2309 45.0116 17.2798 45.1584L18.2853 48.1741C17.4161 49.5847 14.7073 53.8808 12.8503 55.7376C12.7408 55.8471 12.6539 55.9771 12.5947 56.1202C12.5355 56.2632 12.505 56.4166 12.5051 56.5714V62.4643C12.5051 62.6191 12.5356 62.7723 12.5948 62.9153C12.654 63.0583 12.7408 63.1882 12.8503 63.2977L14.5169 64.9643C14.6267 65.0735 14.7138 65.2034 14.7731 65.3464C14.8324 65.4895 14.8627 65.6429 14.8622 65.7977V66H11.3265C11.0141 65.9996 10.7145 65.8754 10.4935 65.6544C10.2726 65.4335 10.1483 65.1339 10.148 64.8214V57.75C10.1479 57.6233 10.1275 57.4975 10.0876 57.3773L8.99738 54.1056L10.0493 46.7423L14.2112 44.6612C14.451 44.5413 14.6428 44.3432 14.7548 44.0996C14.8669 43.856 14.8925 43.5815 14.8275 43.3213L13.6489 38.6071C13.6026 38.4219 13.5121 38.2507 13.385 38.1082C13.258 37.9658 13.0982 37.8563 12.9195 37.7893L7.98425 35.9382C8.52698 34.8963 9.28578 33.9822 10.21 33.2569C10.418 33.0895 10.6774 32.9987 10.9445 33H14.6466L16.0862 38.0384C16.1566 38.2846 16.3053 38.5012 16.5098 38.6553C16.7142 38.8095 16.9633 38.8929 17.2194 38.8929H21.9337C22.1965 38.8929 22.4518 38.805 22.659 38.6432C22.8661 38.4815 23.0133 38.2551 23.077 38.0001L24.2556 33.2858C24.3235 33.0141 24.2925 32.7271 24.168 32.4763C24.0436 32.2254 23.8339 32.0271 23.5765 31.9167L21.7855 31.1492L25.1055 30.0427C25.1161 30.0394 25.1266 30.0362 25.1369 30.0327L26.3302 29.6349L29.3503 32.655C29.5252 32.8299 29.7507 32.9454 29.9949 32.9851C30.239 33.0247 30.4895 32.9866 30.7108 32.876L35.4251 30.5188C35.5815 30.4405 35.7186 30.3283 35.8263 30.1904C35.934 30.0525 36.0096 29.8923 36.0477 29.7215C36.0858 29.5507 36.0854 29.3736 36.0465 29.203C36.0076 29.0324 35.9312 28.8726 35.8228 28.7352L32.6759 24.7419C32.849 24.7219 33.0155 24.6637 33.1634 24.5717C33.3114 24.4796 33.437 24.3558 33.5314 24.2093L44.1385 7.70933C44.2356 7.55828 44.2969 7.38705 44.3177 7.20871C44.3385 7.03036 44.3183 6.84962 44.2586 6.68028C44.199 6.51093 44.1014 6.35747 43.9733 6.2316C43.8453 6.10573 43.6901 6.01078 43.5198 5.954L40.7908 5.0434V3.53571H41.6911L43.7994 4.5898C44.0207 4.70045 44.2711 4.73868 44.5153 4.69907C44.7595 4.65946 44.985 4.54402 45.1599 4.36911ZM49.0408 8.25C49.2739 8.25 49.5018 8.18088 49.6956 8.05138C49.8894 7.92187 50.0405 7.7378 50.1297 7.52245C50.2189 7.30709 50.2422 7.07012 50.1967 6.8415C50.1513 6.61288 50.039 6.40288 49.8742 6.23805C49.7094 6.07323 49.4994 5.96098 49.2707 5.9155C49.0421 5.87003 48.8052 5.89337 48.5898 5.98257C48.3744 6.07177 48.1904 6.22283 48.0609 6.41665C47.9314 6.61046 47.8622 6.83833 47.8622 7.07143C47.8622 7.38401 47.9864 7.68378 48.2074 7.9048C48.4285 8.12583 48.7282 8.25 49.0408 8.25ZM32.2281 34.2879C32.0262 34.246 31.817 34.2577 31.6211 34.322C31.4253 34.3862 31.2497 34.5007 31.1119 34.654L26.9501 39.2836C26.7751 39.4782 26.6699 39.7255 26.6511 39.9866C26.6322 40.2476 26.7008 40.5075 26.846 40.7252L29.2031 44.261C29.3531 44.4859 29.5759 44.6525 29.8341 44.7327C30.0924 44.8129 30.3703 44.8019 30.6214 44.7015L36.5142 42.3443C36.6874 42.275 36.8417 42.1656 36.9644 42.025C37.0871 41.8845 37.1747 41.7168 37.2199 41.5358L38.3985 36.8215C38.437 36.6675 38.444 36.5073 38.419 36.3505C38.3941 36.1937 38.3377 36.0436 38.2533 35.9091C38.1689 35.7747 38.0582 35.6586 37.9279 35.568C37.7975 35.4774 37.6502 35.414 37.4948 35.3817L32.2281 34.2879Z" fill="white"/>
<path d="M18.1094 36.5361L17.0238 32.7369L18.4205 32.2715L21.7266 33.6883L21.0146 36.5361H18.1094Z" fill="white"/>
<path d="M1.89955 50.6783C1.24865 50.6783 0.720982 49.8868 0.720982 48.9104C0.720982 47.9341 1.24865 47.1426 1.89955 47.1426C2.55046 47.1426 3.07812 47.9341 3.07812 48.9104C3.07812 49.8868 2.55046 50.6783 1.89955 50.6783Z" fill="white"/>
<path d="M22.6236 43.6074L24.0859 45.0699L23.0772 47.5928C22.175 47.5307 21.3041 47.4288 20.4738 47.288L19.67 44.8765L20.3043 43.6074H22.6236Z" fill="white"/>
<path d="M41.5332 19.8656L42.7031 19.5176L41.3716 23.29L40.0029 22.1611L41.5332 19.8656Z" fill="white"/>
<path d="M12.3125 42.9753L9.32718 44.468C8.52693 43.2894 7.14387 40.8356 7.3538 38.2188L11.5133 39.7787L12.3125 42.9753Z" fill="white"/>
<path d="M4.99735 38.0953C4.13994 39.5495 3.37785 41.7499 3.14965 45.0527C2.77974 44.887 2.38053 44.7966 1.97531 44.7867C1.57009 44.7768 1.16695 44.8477 0.789414 44.9953C1.35837 36.283 5.37111 33.8442 6.94141 33.2197C6.20832 34.1288 5.65862 35.1714 5.32279 36.2899C5.15068 36.8785 5.04159 37.4837 4.99735 38.0953Z" fill="white"/>
</svg>
