<svg width="61" height="60" viewBox="0 0 61 60" fill="none" xmlns="http://www.w3.org/2000/svg">
<path d="M55.3089 60H4.69891C2.11141 60 0.00390625 57.8944 0.00390625 55.305V8.44688C0.00390625 5.8575 2.11141 3.75 4.70078 3.75H55.307C57.8964 3.75 60.0039 5.8575 60.0039 8.44688V55.305C60.0039 57.8944 57.8983 60 55.3089 60ZM4.70078 7.5C4.17953 7.5 3.75391 7.92563 3.75391 8.44688V55.305C3.75391 55.8263 4.17766 56.25 4.69891 56.25H55.3089C55.8302 56.25 56.2539 55.8263 56.2539 55.305V8.44688C56.2539 7.92563 55.8283 7.5 55.307 7.5H4.70078ZM58.1289 18.75H1.87891C0.843906 18.75 0.00390625 17.91 0.00390625 16.875C0.00390625 15.84 0.843906 15 1.87891 15H58.1289C59.1658 15 60.0039 15.84 60.0039 16.875C60.0039 17.91 59.1658 18.75 58.1289 18.75ZM11.2539 11.25C10.2189 11.25 9.37891 10.41 9.37891 9.375V1.875C9.37891 0.84 10.2189 0 11.2539 0C12.2889 0 13.1289 0.84 13.1289 1.875V9.375C13.1289 10.41 12.2889 11.25 11.2539 11.25ZM48.7539 11.25C47.717 11.25 46.8789 10.41 46.8789 9.375V1.875C46.8789 0.84 47.717 0 48.7539 0C49.7908 0 50.6289 0.84 50.6289 1.875V9.375C50.6289 10.41 49.7908 11.25 48.7539 11.25Z" fill="white"/>
<path d="M11.2539 35.625C12.2894 35.625 13.1289 34.7855 13.1289 33.75C13.1289 32.7145 12.2894 31.875 11.2539 31.875C10.2184 31.875 9.37891 32.7145 9.37891 33.75C9.37891 34.7855 10.2184 35.625 11.2539 35.625Z" fill="white"/>
<path d="M11.2539 43.125C12.2894 43.125 13.1289 42.2855 13.1289 41.25C13.1289 40.2145 12.2894 39.375 11.2539 39.375C10.2184 39.375 9.37891 40.2145 9.37891 41.25C9.37891 42.2855 10.2184 43.125 11.2539 43.125Z" fill="white"/>
<path d="M11.2539 50.625C12.2894 50.625 13.1289 49.7855 13.1289 48.75C13.1289 47.7145 12.2894 46.875 11.2539 46.875C10.2184 46.875 9.37891 47.7145 9.37891 48.75C9.37891 49.7855 10.2184 50.625 11.2539 50.625Z" fill="white"/>
<path d="M41.2539 28.125C42.2894 28.125 43.1289 27.2855 43.1289 26.25C43.1289 25.2145 42.2894 24.375 41.2539 24.375C40.2184 24.375 39.3789 25.2145 39.3789 26.25C39.3789 27.2855 40.2184 28.125 41.2539 28.125Z" fill="white"/>
<path d="M41.2539 35.625C42.2894 35.625 43.1289 34.7855 43.1289 33.75C43.1289 32.7145 42.2894 31.875 41.2539 31.875C40.2184 31.875 39.3789 32.7145 39.3789 33.75C39.3789 34.7855 40.2184 35.625 41.2539 35.625Z" fill="white"/>
<path d="M41.2539 43.125C42.2894 43.125 43.1289 42.2855 43.1289 41.25C43.1289 40.2145 42.2894 39.375 41.2539 39.375C40.2184 39.375 39.3789 40.2145 39.3789 41.25C39.3789 42.2855 40.2184 43.125 41.2539 43.125Z" fill="white"/>
<path d="M41.2539 50.625C42.2894 50.625 43.1289 49.7855 43.1289 48.75C43.1289 47.7145 42.2894 46.875 41.2539 46.875C40.2184 46.875 39.3789 47.7145 39.3789 48.75C39.3789 49.7855 40.2184 50.625 41.2539 50.625Z" fill="white"/>
<path d="M48.7539 28.125C49.7894 28.125 50.6289 27.2855 50.6289 26.25C50.6289 25.2145 49.7894 24.375 48.7539 24.375C47.7184 24.375 46.8789 25.2145 46.8789 26.25C46.8789 27.2855 47.7184 28.125 48.7539 28.125Z" fill="white"/>
<path d="M48.7539 35.625C49.7894 35.625 50.6289 34.7855 50.6289 33.75C50.6289 32.7145 49.7894 31.875 48.7539 31.875C47.7184 31.875 46.8789 32.7145 46.8789 33.75C46.8789 34.7855 47.7184 35.625 48.7539 35.625Z" fill="white"/>
<path d="M48.7539 43.125C49.7894 43.125 50.6289 42.2855 50.6289 41.25C50.6289 40.2145 49.7894 39.375 48.7539 39.375C47.7184 39.375 46.8789 40.2145 46.8789 41.25C46.8789 42.2855 47.7184 43.125 48.7539 43.125Z" fill="white"/>
<path d="M26.2539 28.125C27.2894 28.125 28.1289 27.2855 28.1289 26.25C28.1289 25.2145 27.2894 24.375 26.2539 24.375C25.2184 24.375 24.3789 25.2145 24.3789 26.25C24.3789 27.2855 25.2184 28.125 26.2539 28.125Z" fill="white"/>
<path d="M26.2539 35.625C27.2894 35.625 28.1289 34.7855 28.1289 33.75C28.1289 32.7145 27.2894 31.875 26.2539 31.875C25.2184 31.875 24.3789 32.7145 24.3789 33.75C24.3789 34.7855 25.2184 35.625 26.2539 35.625Z" fill="white"/>
<path d="M26.2539 43.125C27.2894 43.125 28.1289 42.2855 28.1289 41.25C28.1289 40.2145 27.2894 39.375 26.2539 39.375C25.2184 39.375 24.3789 40.2145 24.3789 41.25C24.3789 42.2855 25.2184 43.125 26.2539 43.125Z" fill="white"/>
<path d="M26.2539 50.625C27.2894 50.625 28.1289 49.7855 28.1289 48.75C28.1289 47.7145 27.2894 46.875 26.2539 46.875C25.2184 46.875 24.3789 47.7145 24.3789 48.75C24.3789 49.7855 25.2184 50.625 26.2539 50.625Z" fill="white"/>
<path d="M18.7539 28.125C19.7894 28.125 20.6289 27.2855 20.6289 26.25C20.6289 25.2145 19.7894 24.375 18.7539 24.375C17.7184 24.375 16.8789 25.2145 16.8789 26.25C16.8789 27.2855 17.7184 28.125 18.7539 28.125Z" fill="white"/>
<path d="M18.7539 35.625C19.7894 35.625 20.6289 34.7855 20.6289 33.75C20.6289 32.7145 19.7894 31.875 18.7539 31.875C17.7184 31.875 16.8789 32.7145 16.8789 33.75C16.8789 34.7855 17.7184 35.625 18.7539 35.625Z" fill="white"/>
<path d="M18.7539 43.125C19.7894 43.125 20.6289 42.2855 20.6289 41.25C20.6289 40.2145 19.7894 39.375 18.7539 39.375C17.7184 39.375 16.8789 40.2145 16.8789 41.25C16.8789 42.2855 17.7184 43.125 18.7539 43.125Z" fill="white"/>
<path d="M18.7539 50.625C19.7894 50.625 20.6289 49.7855 20.6289 48.75C20.6289 47.7145 19.7894 46.875 18.7539 46.875C17.7184 46.875 16.8789 47.7145 16.8789 48.75C16.8789 49.7855 17.7184 50.625 18.7539 50.625Z" fill="white"/>
<path d="M33.7539 28.125C34.7894 28.125 35.6289 27.2855 35.6289 26.25C35.6289 25.2145 34.7894 24.375 33.7539 24.375C32.7184 24.375 31.8789 25.2145 31.8789 26.25C31.8789 27.2855 32.7184 28.125 33.7539 28.125Z" fill="white"/>
<path d="M33.7539 35.625C34.7894 35.625 35.6289 34.7855 35.6289 33.75C35.6289 32.7145 34.7894 31.875 33.7539 31.875C32.7184 31.875 31.8789 32.7145 31.8789 33.75C31.8789 34.7855 32.7184 35.625 33.7539 35.625Z" fill="white"/>
<path d="M33.7539 43.125C34.7894 43.125 35.6289 42.2855 35.6289 41.25C35.6289 40.2145 34.7894 39.375 33.7539 39.375C32.7184 39.375 31.8789 40.2145 31.8789 41.25C31.8789 42.2855 32.7184 43.125 33.7539 43.125Z" fill="white"/>
<path d="M33.7539 50.625C34.7894 50.625 35.6289 49.7855 35.6289 48.75C35.6289 47.7145 34.7894 46.875 33.7539 46.875C32.7184 46.875 31.8789 47.7145 31.8789 48.75C31.8789 49.7855 32.7184 50.625 33.7539 50.625Z" fill="white"/>
</svg>
