<svg width="67" height="68" viewBox="0 0 67 68" fill="none" xmlns="http://www.w3.org/2000/svg">
<path d="M46.3113 5.64618C45.4679 5.02648 44.4763 4.7786 43.7065 4.63122C41.1997 4.15109 38.5771 4.27615 36.1271 4.99187C35.6191 5.14037 35.1623 5.31567 34.7556 5.51665C34.9272 4.2393 35.0553 3.60732 35.5255 3.11715C36.2742 2.33667 37.5042 2.3121 38.0066 2.34114L38.1236 0.11135C37.1276 0.0622205 35.2559 0.177227 33.92 1.56847C33.783 1.71139 33.6627 1.85766 33.5546 2.00728C33.4454 1.85766 33.3262 1.71139 33.1892 1.56847C31.8545 0.176111 29.9883 0.0622205 28.9845 0.11135L29.1037 2.34114C29.5995 2.3121 30.8362 2.33779 31.5837 3.11715C32.0673 3.62072 32.1898 4.27503 32.3681 5.62719C31.9102 5.38043 31.3921 5.16494 30.7972 4.99187C28.3472 4.27615 25.7235 4.15109 23.2189 4.63122C22.4479 4.7786 21.4553 5.02648 20.6141 5.64618C19.2671 6.63769 18.7056 8.03786 19.0321 9.59101C19.656 12.5477 23.4306 15.5468 25.9039 16.3507C25.7424 16.6064 25.5719 16.8554 25.4015 17.1044C24.9447 17.7732 24.4712 18.4655 24.147 19.2884C23.3872 21.2134 23.9464 22.4483 24.5492 23.1461C25.5396 24.2906 27.2576 24.668 28.7962 24.668C29.5404 24.668 30.2434 24.5798 30.8005 24.4469C31.9358 24.1756 32.8237 23.6977 33.4632 23.0669C34.1027 23.6977 34.9918 24.1756 36.1271 24.4469C36.6842 24.5798 37.3861 24.6691 38.1303 24.6691C39.6689 24.6691 41.3869 24.2906 42.3773 23.1461C42.98 22.4483 43.5393 21.2145 42.7806 19.2895C42.4564 18.4666 41.9829 17.7755 41.5272 17.1066C41.3557 16.8565 41.1841 16.6064 41.0237 16.3507C43.4925 15.5501 47.2705 12.5488 47.8944 9.59101C48.2198 8.03786 47.6582 6.63769 46.3113 5.64618ZM32.1854 21.1252C31.8578 21.7761 30.9698 22.11 30.2824 22.2741C28.8642 22.6135 26.9011 22.4561 26.2315 21.6823C26.1234 21.5573 25.7959 21.1776 26.217 20.1091C26.4499 19.5195 26.8331 18.959 27.2387 18.3661C27.5228 17.9508 27.8057 17.5332 28.0542 17.0932C28.6425 16.0437 28.326 15.3335 28.0843 15.003C27.7077 14.4883 27.1518 14.3643 26.8476 14.2962C25.0962 13.9088 21.6491 11.2089 21.2102 9.12875C21.0653 8.43759 21.287 7.91951 21.9299 7.44497C22.4123 7.09101 23.0919 6.928 23.6323 6.82416C24.4979 6.66114 25.3759 6.57851 26.2538 6.57851C27.5774 6.57851 28.902 6.76498 30.1744 7.13679C31.0189 7.38356 32.0751 7.83912 32.309 8.60843C32.3235 8.65868 32.3257 8.72455 32.3358 8.78038L32.1854 21.1252ZM45.7119 9.12875C45.2729 11.2089 41.8281 13.9099 40.0722 14.2985C39.7725 14.3643 39.2143 14.4883 38.8389 15.0041C38.5971 15.3346 38.2796 16.047 38.8723 17.0966C39.1196 17.5343 39.4026 17.9519 39.6867 18.3683C40.0911 18.9612 40.4733 19.5206 40.7061 20.1102C41.1273 21.1799 40.7997 21.5584 40.6917 21.6834C40.0221 22.4561 38.0579 22.6147 36.6418 22.2752C35.9533 22.1111 35.0653 21.7772 34.7378 21.1263L34.6464 8.54255C34.9194 7.81455 35.931 7.37686 36.7499 7.13679C38.8656 6.52045 41.1273 6.41326 43.2898 6.82639C43.829 6.92911 44.5108 7.09325 44.9921 7.4472C45.6361 7.91951 45.8578 8.43871 45.7119 9.12875Z" fill="white"/>
<path d="M15.6696 34.7157H51.3215V40.2986H53.5497V33.5992C53.5497 32.9828 53.0517 32.4826 52.4356 32.4826H34.6097V25.7832H32.3814V32.4826H14.5555C13.9394 32.4826 13.4414 32.9828 13.4414 33.5992V40.2986H15.6696V34.7157Z" fill="white"/>
<path d="M20.0525 52.5811H17.8242V54.8142H20.0525V52.5811Z" fill="white"/>
<path d="M24.5095 50.3477H22.2812V52.5808H24.5095V50.3477Z" fill="white"/>
<path d="M6.68136 50.3477H4.45312V52.5808H6.68136V50.3477Z" fill="white"/>
<path d="M11.1384 52.5811H8.91016V54.8142H11.1384V52.5811Z" fill="white"/>
<path d="M49.8817 54.0251C48.235 52.3737 46.0458 51.4648 43.7151 51.4648H43.5234V53.698H43.7151C45.4497 53.698 47.0808 54.3746 48.3063 55.604L49.8817 54.0251Z" fill="white"/>
<path d="M61.1588 53.698H61.3505V51.4648H61.1588C58.8281 51.4648 56.6377 52.3737 54.9922 54.0251L56.5676 55.604C57.7942 54.3746 59.4242 53.698 61.1588 53.698Z" fill="white"/>
<path d="M27.3699 48.0683C26.5265 47.4486 25.5349 47.2007 24.765 47.0533C22.2572 46.5732 19.6356 46.6994 17.1857 47.414C16.6777 47.5625 16.2209 47.7378 15.8142 47.9388C15.9858 46.6614 16.1139 46.0295 16.5841 45.5393C17.3328 44.7588 18.5639 44.7342 19.0652 44.7633L19.1822 42.5335C18.1895 42.4832 16.3145 42.5994 14.9786 43.9906C14.8416 44.1335 14.7213 44.2798 14.6132 44.4294C14.504 44.2798 14.3848 44.1335 14.2478 43.9906C12.9131 42.5994 11.0514 42.4832 10.0431 42.5335L10.1623 44.7633C10.6581 44.7354 11.8947 44.7599 12.6423 45.5393C13.1258 46.0429 13.2484 46.6972 13.4267 48.0493C12.9688 47.8026 12.4507 47.5871 11.8558 47.414C9.4058 46.6994 6.78205 46.5743 4.27751 47.0533C3.50654 47.2007 2.51386 47.4486 1.6727 48.0683C0.325732 49.0598 -0.235784 50.46 0.0906526 52.0131C0.714559 54.9698 4.4892 57.9689 6.96254 58.7728C6.80099 59.0285 6.63053 59.2775 6.46007 59.5265C6.00328 60.1954 5.52978 60.8876 5.20557 61.7105C4.44574 63.6355 5.00503 64.8704 5.60777 65.5683C6.59822 66.7128 8.31619 67.0902 9.85479 67.0902C10.599 67.0902 11.302 67.0019 11.8591 66.8691C12.9944 66.5978 13.8823 66.1199 14.5218 65.489C15.1613 66.1199 16.0504 66.5978 17.1857 66.8691C17.7428 67.0019 18.4447 67.0913 19.1889 67.0913C20.7275 67.0913 22.4455 66.7128 23.4359 65.5683C24.0386 64.8704 24.5979 63.6366 23.8392 61.7116C23.515 60.8887 23.0415 60.1976 22.5858 59.5288C22.4143 59.2786 22.2427 59.0285 22.0823 58.7728C24.5511 57.9723 28.3291 54.9709 28.953 52.0131C29.2783 50.46 28.7168 49.0598 27.3699 48.0683ZM13.2439 63.5473C12.9164 64.1982 12.0284 64.5321 11.341 64.6962C9.92276 65.0346 7.95968 64.8782 7.29009 64.1045C7.18202 63.9794 6.85447 63.5998 7.27561 62.5312C7.50846 61.9417 7.89172 61.3811 8.29725 60.7882C8.58136 60.3729 8.86434 59.9553 9.11279 59.5154C9.70105 58.4658 9.38463 57.7557 9.14287 57.4251C8.7663 56.9104 8.21035 56.7865 7.9062 56.7184C6.1548 56.3309 2.70772 53.631 2.26876 51.5509C2.12392 50.8597 2.34563 50.3416 2.98848 49.8671C3.47089 49.5131 4.1505 49.3501 4.69085 49.2463C5.55318 49.081 6.43111 48.9984 7.31015 48.9984C8.63372 48.9984 9.95841 49.1849 11.2307 49.5567C12.0752 49.8035 13.1303 50.2579 13.3654 51.0283L13.2439 63.5473ZM26.7705 51.5509C26.3315 53.631 22.8866 56.332 21.1308 56.7206C20.8311 56.7876 20.2729 56.9104 19.8975 57.4263C19.6557 57.7568 19.3382 58.4691 19.9309 59.5187C20.1782 59.9564 20.4612 60.374 20.7453 60.7905C21.1497 61.3834 21.5319 61.9428 21.7647 62.5323C22.1859 63.602 21.8583 63.9805 21.7502 64.1056C21.0807 64.8782 19.1154 65.0357 17.7004 64.6974C17.0119 64.5332 16.1239 64.1994 15.7964 63.5484L15.705 50.9647C15.978 50.2367 16.9896 49.799 17.8085 49.5589C19.9231 48.9426 22.1848 48.8343 24.3484 49.2485C24.8876 49.3512 25.5694 49.5154 26.0507 49.8693C26.6947 50.3416 26.9164 50.8608 26.7705 51.5509Z" fill="white"/>
<path d="M65.3224 48.0683C64.4812 47.4486 63.4885 47.2007 62.7187 47.0533C60.2119 46.5732 57.5893 46.6994 55.1393 47.414C54.6313 47.5625 54.1745 47.7378 53.7679 47.9388C53.9394 46.6614 54.0687 46.0283 54.5366 45.5393C55.2853 44.7588 56.522 44.7342 57.0166 44.7633L57.1358 42.5335C56.1409 42.4832 54.2681 42.5994 52.9311 43.9917C52.7941 44.1346 52.6749 44.2809 52.5668 44.4305C52.4588 44.2809 52.3384 44.1346 52.2014 43.9917C50.8645 42.6005 48.9927 42.4843 47.9967 42.5346L48.1159 44.7644C48.6084 44.7342 49.8462 44.7599 50.596 45.5404C51.0773 46.0429 51.1998 46.6949 51.3803 48.0504C50.9235 47.8037 50.4043 47.5882 49.8094 47.4151C47.3594 46.7005 44.7357 46.5755 42.2311 47.0545C41.4613 47.2007 40.4686 47.4497 39.6252 48.0694C38.2783 49.0609 37.7167 50.4611 38.0443 52.0131C38.6671 54.9698 42.4417 57.9689 44.9151 58.7728C44.7535 59.0285 44.5831 59.2787 44.4115 59.5288C43.9558 60.1976 43.4823 60.8887 43.1592 61.7105C42.3994 63.6355 42.9587 64.8704 43.5614 65.5683C44.5519 66.7128 46.2698 67.0902 47.8084 67.0902C48.5527 67.0902 49.2557 67.002 49.8127 66.8691C50.9469 66.5978 51.836 66.1199 52.4755 65.489C53.115 66.1199 54.004 66.5978 55.1393 66.8691C55.6964 67.002 56.3983 67.0913 57.1425 67.0913C58.6811 67.0913 60.3991 66.7128 61.3895 65.5683C61.9923 64.8704 62.5516 63.6366 61.7917 61.7105C61.4675 60.8876 60.994 60.1954 60.5372 59.5265C60.3668 59.2764 60.1941 59.0274 60.0348 58.7728C62.5048 57.9723 66.2827 54.9709 66.9067 52.0131C67.2309 50.46 66.6693 49.0598 65.3224 48.0683ZM51.1987 63.5473C50.8711 64.1982 49.9832 64.5321 49.2958 64.6962C47.8775 65.0346 45.9144 64.8782 45.2448 64.1045C45.1368 63.9794 44.8092 63.5998 45.2315 62.5301C45.4632 61.9417 45.8453 61.3823 46.2498 60.7894C46.535 60.3729 46.818 59.9553 47.0642 59.5176C47.6569 58.468 47.3394 57.7557 47.0976 57.4251C46.721 56.9093 46.1629 56.7865 45.8598 56.7184C44.1084 56.3309 40.6625 53.6299 40.2235 51.5498C40.0776 50.8597 40.2993 50.3405 40.9432 49.8671C41.4256 49.5131 42.1064 49.349 42.6467 49.2463C43.509 49.081 44.387 48.9984 45.266 48.9984C46.5896 48.9984 47.9143 49.1849 49.1866 49.5567C50.0311 49.8035 51.0873 50.259 51.3201 51.0283L51.1987 63.5473ZM64.7241 51.552C64.2851 53.6322 60.8392 56.332 59.0811 56.7217C58.7825 56.7887 58.2266 56.9115 57.8511 57.4263C57.6093 57.7557 57.2929 58.4658 57.8834 59.5198C58.1307 59.9564 58.4137 60.374 58.6967 60.7894C59.1023 61.3823 59.4855 61.9428 59.7184 62.5323C60.1395 63.602 59.8119 63.9805 59.7039 64.1056C59.0354 64.8782 57.0701 65.0357 55.6541 64.6974C54.9655 64.5332 54.0776 64.1994 53.7489 63.5473L53.6587 50.9625C53.935 50.2356 54.9444 49.7979 55.7621 49.56C57.8778 48.9437 60.1395 48.8354 62.302 49.2496C62.8412 49.3524 63.522 49.5165 64.0033 49.8704C64.6472 50.3416 64.8689 50.8608 64.7241 51.552Z" fill="white"/>
<path d="M50.2087 60.3975H47.9805V62.6306H50.2087V60.3975Z" fill="white"/>
<path d="M56.8923 60.3975H54.6641V62.6306H56.8923V60.3975Z" fill="white"/>
</svg>
