<svg width="68" height="60" viewBox="0 0 68 60" fill="none" xmlns="http://www.w3.org/2000/svg">
<path d="M66.876 37.9783C66.0449 37.6504 65.2692 37.2679 64.6044 36.7761C63.8842 36.2843 63.2193 35.7378 62.7207 35.1367C61.8896 34.2078 61.2248 33.1149 60.7262 32.022C62.4437 28.9073 63.4409 25.3554 63.4409 21.5849C63.3855 9.78168 53.6345 0.109595 41.6674 0.000306099C31.1407 -0.0543384 22.3315 7.21338 20.1708 16.9401C10.4752 19.2898 3.27271 27.9237 3.27271 38.1968C3.27271 41.5301 4.04836 44.8635 5.54426 47.8689C5.21184 48.4154 4.87942 48.9072 4.49159 49.3443C4.10377 49.7815 3.60513 50.2186 3.1065 50.5465C2.60787 50.8744 1.99843 51.2022 1.4444 51.4208C0.613345 51.7487 0.0593098 52.5137 0.00390625 53.388C0.00390625 54.2623 0.502538 55.082 1.38899 55.4645C1.4998 55.5191 1.5552 55.5738 1.66601 55.5738C1.83222 55.6284 1.99843 55.7377 2.22005 55.7924C2.82949 56.0656 3.49433 56.2842 4.10377 56.3935C5.21184 56.6667 6.31991 56.8306 7.48338 56.8853C8.59145 56.9399 9.81033 56.8306 10.9738 56.612C11.5832 56.5028 12.2481 56.3935 12.9129 56.1749C16.625 58.6885 20.9464 60 25.4895 60C36.2378 60 45.2686 52.4044 47.2631 42.3498C50.0333 41.6394 52.5818 40.3826 54.798 38.6886C55.7398 38.9619 56.7371 39.2351 57.7344 39.399C58.8424 39.5629 60.0059 39.6722 61.114 39.6722C62.2221 39.6176 63.2747 39.5083 64.3274 39.2351C64.9368 39.0711 65.4909 38.9072 66.0449 38.634C66.3219 38.5247 66.5989 38.3608 66.876 38.2515C66.9868 38.2515 67.0976 38.0875 66.876 37.9783ZM29.7002 18.7434C31.3069 18.7434 32.5812 20.0002 32.5812 21.5849C32.5812 23.1696 31.3069 24.4264 29.7002 24.4264C28.0935 24.4264 26.8192 23.1696 26.8192 21.5849C26.8746 20.0548 28.1489 18.7434 29.7002 18.7434ZM25.4341 56.0109C21.4451 56.0109 17.6776 54.7541 14.5196 52.4044L13.6886 51.8033L12.6913 52.1312C11.8603 52.4044 11.0292 52.5683 10.2536 52.6776C9.3117 52.8416 8.42524 52.8962 7.53878 52.8962C7.26177 52.8962 6.98475 52.8962 6.70773 52.8416C6.98475 52.5683 7.26177 52.3498 7.48338 52.0219C8.36984 51.0929 9.03468 49.9454 9.64412 48.6339L10.0873 47.705L9.58871 46.8307C8.09282 44.2077 7.31717 41.2023 7.31717 38.1968C7.31717 33.3335 9.3117 28.8526 12.5805 25.6286C14.5196 23.6614 16.9574 22.186 19.6168 21.3117C19.6168 21.421 19.6168 21.5303 19.6168 21.5849C19.6722 33.4974 29.4786 43.1695 41.5565 43.1695C41.9998 43.1695 42.3876 43.1695 42.8308 43.1148C40.6147 50.6011 33.6892 56.0109 25.4341 56.0109ZM41.6119 24.4264C40.0052 24.4264 38.731 23.1696 38.731 21.5849C38.731 20.0002 40.0052 18.7434 41.6119 18.7434C43.2186 18.7434 44.4929 20.0002 44.4929 21.5849C44.4929 23.1696 43.1632 24.4264 41.6119 24.4264ZM53.4683 24.4264C51.8616 24.4264 50.5873 23.1696 50.5873 21.5849C50.5873 20.0002 51.8616 18.7434 53.4683 18.7434C55.075 18.7434 56.3493 20.0002 56.3493 21.5849C56.3493 23.1696 55.075 24.4264 53.4683 24.4264Z" fill="white"/>
</svg>
