<svg width="61" height="69" viewBox="0 0 61 69" fill="none" xmlns="http://www.w3.org/2000/svg">
<path d="M12.0867 29.5633C11.5782 35.2446 13.6735 40.7186 17.8362 44.5794C20.1963 46.7693 21.5501 49.8392 21.5501 53.0038V54.1388V60.2258C21.5501 62.4339 23.2746 64.2432 25.4471 64.3877C26.0063 66.2893 27.889 68.1039 30.2114 68.1039C32.5337 68.1039 34.4164 66.2893 34.9756 64.3877C37.1481 64.2432 38.8726 62.4346 38.8726 60.2258V54.1388V53.0038C38.8726 49.84 40.2264 46.7693 42.5873 44.5794C46.75 40.7171 48.846 35.2446 48.3368 29.5633C47.5498 20.7764 40.3127 13.6913 31.5016 13.0829C30.6344 13.0231 29.7899 13.0231 28.9219 13.0829C20.1116 13.6913 12.8737 20.7764 12.0867 29.5633ZM36.6025 58.7109H23.821V57.5599H36.6025V58.7109ZM30.2114 65.8338C29.2375 65.8338 28.3854 65.155 27.9201 64.4021H32.5034C32.0373 65.155 31.1852 65.8338 30.2114 65.8338ZM34.6964 62.1319H25.7271C24.9447 62.1319 24.272 61.6575 23.9784 60.981H36.4444C36.1515 61.6575 35.4788 62.1319 34.6964 62.1319ZM36.6025 55.2898H23.821V54.1388H36.6025V55.2898ZM26.7093 35.1107H25.2194C24.3976 35.1107 23.7287 34.4425 23.7287 33.6207C23.7287 32.7989 24.3976 32.13 25.2194 32.13C26.0411 32.13 26.7093 32.7989 26.7093 33.6207V35.1107ZM28.9794 37.3808H31.4433V51.8687H28.9794V37.3808ZM29.0778 15.3477C29.8398 15.2955 30.5837 15.2955 31.3449 15.3477C39.0542 15.8797 45.3864 22.0787 46.075 29.7661C46.5207 34.7422 44.6872 39.5351 41.0436 42.9154C38.5041 45.271 36.9393 48.484 36.6509 51.8687H33.7142V37.3808H35.2049C37.2783 37.3808 38.965 35.6941 38.965 33.6207C38.965 31.5473 37.2783 29.8599 35.2049 29.8599C33.1315 29.8599 31.444 31.5466 31.444 33.6207V35.1107H28.9802V33.6207C28.9802 31.5473 27.2935 29.8599 25.2201 29.8599C23.1467 29.8599 21.4593 31.5466 21.4593 33.6207C21.4593 35.6949 23.146 37.3808 25.2201 37.3808H26.7101V51.8687H23.7733C23.4857 48.484 21.9209 45.271 19.3814 42.9154C15.7378 39.5351 13.9036 34.7422 14.3493 29.7661C15.0364 22.0787 21.3692 15.8797 29.0778 15.3477ZM33.7134 35.1107V33.6207C33.7134 32.7989 34.3823 32.13 35.2041 32.13C36.0259 32.13 36.6941 32.7989 36.6941 33.6207C36.6941 34.4425 36.0259 35.1107 35.2041 35.1107H33.7134Z" fill="white"/>
<path d="M29.0078 1.20317V6.4759C29.0078 7.13802 29.5496 7.67907 30.211 7.67907C30.8731 7.67907 31.4141 7.13726 31.4141 6.4759V1.20317C31.4141 0.541046 30.8723 0 30.211 0C29.5496 0 29.0078 0.541803 29.0078 1.20317Z" fill="white"/>
<path d="M48.6689 6.11139C48.1331 5.72244 47.3772 5.842 46.9882 6.37775L43.8887 10.6433C43.4998 11.1791 43.6193 11.935 44.1551 12.324C44.6908 12.7129 45.4468 12.5933 45.8357 12.0576L48.9352 7.79204C49.3234 7.25629 49.2038 6.50034 48.6689 6.11139Z" fill="white"/>
<path d="M54.2196 25.0481L59.2343 23.4189C59.8638 23.2146 60.2112 22.5321 60.0069 21.9025C59.8026 21.2729 59.12 20.9256 58.4904 21.1299L53.4757 22.7591C52.8461 22.9634 52.4988 23.6459 52.7031 24.2755C52.9082 24.9051 53.59 25.2532 54.2196 25.0481Z" fill="white"/>
<path d="M53.3702 40.4883L58.3849 42.1174C59.0145 42.3218 59.6963 41.9744 59.9013 41.3449C60.1056 40.7153 59.7583 40.0335 59.1287 39.8284L54.114 38.1992C53.4844 37.9949 52.8027 38.3422 52.5976 38.9718C52.3933 39.6014 52.7414 40.2839 53.3702 40.4883Z" fill="white"/>
<path d="M45.5504 51.0643C45.1614 50.5285 44.4047 50.409 43.8697 50.7979C43.3347 51.1869 43.2144 51.9436 43.6034 52.4786L46.7028 56.7441C47.0918 57.2791 47.8485 57.3994 48.3835 57.0105C48.9192 56.6215 49.0388 55.8648 48.6498 55.3298L45.5504 51.0643Z" fill="white"/>
<path d="M11.4006 56.8054C11.9364 57.1944 12.6923 57.0748 13.0813 56.539L16.1808 52.2735C16.5697 51.7377 16.4502 50.9818 15.9144 50.5928C15.3787 50.2039 14.6227 50.3234 14.2338 50.8592L11.1343 55.1248C10.7461 55.6597 10.8657 56.4157 11.4006 56.8054Z" fill="white"/>
<path d="M1.57894 41.7844L6.59364 40.1553C7.22322 39.9509 7.57055 39.2684 7.36624 38.6388C7.16193 38.0092 6.47938 37.6619 5.8498 37.8662L0.835096 39.4954C0.205516 39.6997 -0.141813 40.3823 0.0624979 41.0118C0.266809 41.6414 0.94936 41.9895 1.57894 41.7844Z" fill="white"/>
<path d="M0.940565 23.0869L5.95526 24.7161C6.58485 24.9204 7.26664 24.5731 7.47171 23.9435C7.67602 23.3139 7.32869 22.6321 6.69911 22.427L1.68441 20.7978C1.05483 20.5935 0.373034 20.9409 0.167967 21.5704C-0.0363444 22.2 0.310984 22.8826 0.940565 23.0869Z" fill="white"/>
<path d="M13.367 6.17072C12.978 5.63497 12.2213 5.51541 11.6863 5.90436C11.1506 6.29331 11.031 7.05001 11.42 7.58501L14.5195 11.8506C14.9084 12.3863 15.6651 12.5059 16.2001 12.1169C16.7359 11.728 16.8554 10.9713 16.4665 10.4363L13.367 6.17072Z" fill="white"/>
<path d="M30.2046 19.4594C32.3385 19.4594 34.4157 20.0579 36.2114 21.1907C36.3998 21.3095 36.6086 21.3655 36.816 21.3655C37.1928 21.3655 37.5613 21.1778 37.777 20.8358C38.1115 20.3054 37.9525 19.6046 37.4229 19.2702C35.2647 17.9081 32.7691 17.1885 30.2054 17.1885C29.5781 17.1885 29.0703 17.6962 29.0703 18.3235C29.0703 18.9508 29.5781 19.4594 30.2046 19.4594Z" fill="white"/>
<path d="M40.6476 26.4618C40.8277 26.9007 41.2514 27.1671 41.6986 27.1671C41.8417 27.1671 41.9877 27.1399 42.1285 27.0823C42.7088 26.8447 42.9858 26.1819 42.7482 25.6015C42.301 24.5111 41.7115 23.4804 40.9957 22.5398C40.6158 22.0404 39.9022 21.9443 39.4051 22.3234C38.9056 22.7033 38.8095 23.4153 39.1886 23.914C39.7857 24.6972 40.276 25.5546 40.6476 26.4618Z" fill="white"/>
</svg>
